<?xml version="1.0" encoding="UTF-8" standalone="no"?>
<svg
   xmlns:dc="http://purl.org/dc/elements/1.1/"
   xmlns:cc="http://creativecommons.org/ns#"
   xmlns:rdf="http://www.w3.org/1999/02/22-rdf-syntax-ns#"
   xmlns:svg="http://www.w3.org/2000/svg"
   xmlns="http://www.w3.org/2000/svg"
   version="1.1"
   id="svg2"
   viewBox="0 0 257.61361 91.446424"
   height="25.808212mm"
   width="72.704285mm">
  <defs
     id="defs4" />
  <metadata
     id="metadata7">
    <rdf:RDF>
      <cc:Work
         rdf:about="">
        <dc:format>image/svg+xml</dc:format>
        <dc:type
           rdf:resource="http://purl.org/dc/dcmitype/StillImage" />
        <dc:title></dc:title>
      </cc:Work>
    </rdf:RDF>
  </metadata>
  <g
     transform="translate(-71.511426,-135.11649)"
     id="layer1">
    <g
       id="text3336"
       style="font-style:normal;font-variant:normal;font-weight:600;font-stretch:normal;font-size:50px;line-height:125%;font-family:HelveticaNeueCyr;-inkscape-font-specification:'HelveticaNeueCyr, Semi-Bold';text-align:start;letter-spacing:0px;word-spacing:0px;writing-mode:lr-tb;text-anchor:start;fill:#000000;fill-opacity:1;stroke:none;stroke-width:1px;stroke-linecap:butt;stroke-linejoin:miter;stroke-opacity:1">
      <path
         id="path3426"
         style="font-style:normal;font-variant:normal;font-weight:normal;font-stretch:normal;font-size:60px;line-height:125%;font-family:HelveticaNeueCyr;-inkscape-font-specification:'HelveticaNeueCyr, Normal';text-align:start;writing-mode:lr-tb;text-anchor:start"
         d="m 84.591426,178.07649 0,-13.26 -13.08,0 0,-3.54 13.08,0 0,-13.26 3.96,0 0,13.26 13.080004,0 0,3.54 -13.080004,0 0,13.26 -3.96,0 z" />
      <path
         id="path3428"
         style="font-style:normal;font-variant:normal;font-weight:normal;font-stretch:normal;font-size:60px;line-height:125%;font-family:HelveticaNeueCyr;-inkscape-font-specification:'HelveticaNeueCyr, Normal';text-align:start;writing-mode:lr-tb;text-anchor:start"
         d="m 135.80799,173.99649 0,3.96 q -1.56,0.6 -3.48,0.6 -4.38,0 -4.5,-4.56 -4.38,4.92 -11.22,4.92 -4.56,0 -7.26,-2.34 -2.64,-2.34 -2.64,-6.42 0,-8.28 10.98,-9.66 6.48,-0.78 7.5,-1.14 2.16,-0.72 2.34,-3 0.06,-0.36 0.06,-0.78 0,-5.1 -7.02,-5.1 -3.6,0 -5.46,1.5 -1.86,1.44 -2.22,4.8 l -4.98,0 q 0.12,-4.98 3.54,-7.74 3.42,-2.76 9.42,-2.76 6.54,0 9.72,3 1.02,0.96 1.5,2.52 0.48,1.56 0.54,2.58 0.06,0.96 0.06,2.94 0,2.34 -0.12,6.96 -0.12,4.56 -0.12,6.84 0,1.68 0.42,2.4 0.48,0.66 1.68,0.66 0.48,0 1.26,-0.18 z m -8.22,-12 q -0.54,0.42 -1.14,0.72 -0.6,0.3 -1.56,0.48 -0.9,0.18 -1.26,0.3 -0.3,0.06 -1.56,0.24 -1.26,0.12 -1.32,0.12 -1.86,0.24 -2.46,0.36 -0.54,0.06 -2.16,0.48 -1.56,0.42 -2.22,0.96 -0.66,0.54 -1.32,1.62 -0.6,1.02 -0.6,2.46 0,2.4 1.62,3.78 1.68,1.38 4.56,1.38 3.66,0 6.54,-2.16 2.88,-2.16 2.88,-5.1 l 0,-5.64 z" />
      <path
         id="path3430"
         style="font-style:normal;font-variant:normal;font-weight:normal;font-stretch:normal;font-size:60px;line-height:125%;font-family:HelveticaNeueCyr;-inkscape-font-specification:'HelveticaNeueCyr, Normal';text-align:start;writing-mode:lr-tb;text-anchor:start"
         d="m 156.75455,146.39649 0,5.28 q -0.54,-0.06 -1.32,-0.06 -2.46,0 -4.26,0.78 -1.8,0.72 -2.88,1.92 -1.02,1.2 -1.68,3 -0.66,1.8 -0.9,3.6 -0.18,1.8 -0.18,4.08 l 0,13.08 -5.1,0 0,-30.96 4.86,0 0,6.66 q 3.06,-7.38 11.46,-7.38 z" />
      <path
         id="path3432"
         style="font-style:normal;font-variant:normal;font-weight:normal;font-stretch:normal;font-size:60px;line-height:125%;font-family:HelveticaNeueCyr;-inkscape-font-specification:'HelveticaNeueCyr, Normal';text-align:start;writing-mode:lr-tb;text-anchor:start"
         d="m 173.91361,147.11649 0,4.2 -6.18,0 0,18.06 q 0,1.5 0,1.98 0.06,0.48 0.36,1.32 0.3,0.78 1.02,1.02 0.72,0.24 2.04,0.24 1.14,0 2.76,-0.18 l 0,4.38 q -2.16,0.24 -3.9,0.24 -2.16,0 -3.6,-0.48 -1.44,-0.48 -2.22,-1.08 -0.72,-0.6 -1.08,-2.1 -0.36,-1.56 -0.42,-2.58 -0.06,-1.08 -0.06,-3.54 0,-0.54 0,-0.84 l 0,-16.44 -5.22,0 0,-4.2 5.22,0 0,-9.18 5.1,0 0,9.18 6.18,0 z" />
      <path
         id="path3434"
         style="font-style:normal;font-variant:normal;font-weight:normal;font-stretch:normal;font-size:60px;line-height:125%;font-family:HelveticaNeueCyr;-inkscape-font-specification:'HelveticaNeueCyr, Normal';text-align:start;writing-mode:lr-tb;text-anchor:start;fill:#ff0000"
         d="m 208.9808,157.85649 q -0.3,6.06 -2.94,10.56 l 8.28,9.66 -6.6,0 -4.56,-5.4 q -4.44,6.3 -12.48,6.3 -5.52,0 -9.3,-3.24 -3.72,-3.3 -3.72,-8.82 0,-4.2 2.88,-7.56 2.88,-3.42 7.14,-5.28 -4.62,-5.64 -4.62,-9.9 0,-4.02 2.76,-6.54 2.82,-2.52 7.2,-2.52 4.32,0 7.02,2.52 2.76,2.46 2.76,6.36 0,6.96 -7.86,11.1 l 7.8,9.54 q 1.2,-2.94 1.38,-6.78 l 4.86,0 z m -16.74,-6.06 q 5.64,-3.36 5.64,-7.38 0,-2.22 -1.44,-3.66 -1.38,-1.44 -3.48,-1.44 -2.1,0 -3.54,1.38 -1.44,1.32 -1.44,3.3 0,0.42 0.06,0.9 0.12,0.48 0.3,0.96 0.18,0.48 0.36,0.9 0.18,0.36 0.54,0.96 0.36,0.54 0.54,0.84 0.18,0.3 0.6,0.96 0.48,0.6 0.6,0.78 0.18,0.18 0.66,0.84 0.54,0.6 0.6,0.66 z m -1.8,5.58 q -7.44,3.78 -7.44,9.3 0,3.3 2.4,5.64 2.4,2.28 5.82,2.28 5.64,0 9.06,-5.34 l -9.84,-11.88 z" />
      <path
         id="path3436"
         style="font-style:normal;font-variant:normal;font-weight:normal;font-stretch:normal;font-size:60px;line-height:125%;font-family:HelveticaNeueCyr;-inkscape-font-specification:'HelveticaNeueCyr, Normal';text-align:start;writing-mode:lr-tb;text-anchor:start;fill:#ff0000"
         d="m 242.99236,147.11649 -13.26,34.92 q -0.78,2.1 -1.38,3.24 -0.54,1.2 -1.62,2.58 -1.02,1.44 -2.52,2.04 -1.44,0.66 -3.42,0.66 -1.5,0 -3.78,-0.54 l 0,-4.56 q 2.22,0.66 3.3,0.66 2.52,0 3.6,-2.58 l 2.4,-5.64 -12.3,-30.78 5.76,0 9.18,24.66 8.7,-24.66 5.34,0 z" />
      <path
         id="path3438"
         style="font-style:normal;font-variant:normal;font-weight:normal;font-stretch:normal;font-size:60px;line-height:125%;font-family:HelveticaNeueCyr;-inkscape-font-specification:'HelveticaNeueCyr, Normal';text-align:start;writing-mode:lr-tb;text-anchor:start;fill:#ff0000"
         d="m 249.83236,150.65649 q 4.08,-4.44 11.1,-4.44 7.02,0 10.92,4.26 3.9,4.26 3.9,11.94 0,7.86 -3.9,12.24 -3.9,4.38 -10.98,4.38 -7.08,0 -11.1,-4.32 -4.02,-4.32 -4.02,-12 0,-7.62 4.08,-12.06 z m 18.06,3.12 q -2.58,-3.3 -7.08,-3.3 -4.5,0 -7.14,3.3 -2.64,3.3 -2.64,8.82 0,5.7 2.58,8.94 2.64,3.18 7.32,3.18 4.5,0 7.02,-3.24 2.58,-3.24 2.58,-8.94 0,-5.52 -2.64,-8.76 z" />
      <path
         id="path3440"
         style="font-style:normal;font-variant:normal;font-weight:normal;font-stretch:normal;font-size:60px;line-height:125%;font-family:HelveticaNeueCyr;-inkscape-font-specification:'HelveticaNeueCyr, Normal';text-align:start;writing-mode:lr-tb;text-anchor:start;fill:#ff0000"
         d="m 307.50549,147.11649 0,30.96 -4.74,0 0,-4.86 q -3.96,5.7 -10.68,5.7 -4.92,0 -7.62,-2.7 -2.7,-2.7 -2.7,-7.8 l 0,-21.3 5.1,0 0,19.92 q 0,3.66 1.38,5.58 1.44,1.86 5.1,1.86 9.06,0 9.06,-11.16 l 0,-16.2 5.1,0 z" />
    </g>
    <g
       id="text3340"
       style="font-style:normal;font-weight:normal;font-size:35px;line-height:125%;font-family:sans-serif;letter-spacing:0px;word-spacing:0px;fill:#000000;fill-opacity:1;stroke:none;stroke-width:1px;stroke-linecap:butt;stroke-linejoin:miter;stroke-opacity:1">
      <path
         id="path3443"
         style="font-style:normal;font-variant:normal;font-weight:normal;font-stretch:normal;font-size:20px;font-family:'Architects Daughter';-inkscape-font-specification:'Architects Daughter'"
         d="m 210.10159,225.68401 q 0,0.33203 -0.46875,0.33203 -0.35156,0 -0.83984,-0.33203 -0.23438,-0.52735 -0.23438,-2.51954 0,-1.99218 0.0391,-3.28125 0.0391,-1.30859 0.0781,-2.40234 0.11719,-2.38281 0.11719,-2.51953 0.56641,-0.33203 0.9375,-0.33203 0.37109,0 0.37109,0.33203 l 0,10.72266 z" />
      <path
         id="path3445"
         style="font-style:normal;font-variant:normal;font-weight:normal;font-stretch:normal;font-size:20px;font-family:'Architects Daughter';-inkscape-font-specification:'Architects Daughter'"
         d="m 214.57425,224.12151 0.0391,-3.125 q 0,-0.74219 -0.13672,-1.26954 l -3.02734,0 -0.0391,-1.34765 2.92968,0 0,-5.03906 q 0.0586,-0.17579 0.23438,-0.35157 0.27344,-0.27343 0.44922,-0.27343 0.19531,0 0.33203,0.0391 0.13672,0.0391 0.29297,0.27344 0.3125,1.28906 0.3125,3.88671 0,0.64454 0.0586,1.26954 0.625,-0.0781 1.25,-0.0781 0,0 1.01563,0 0.37109,0 0.68359,-0.0391 l -0.0586,1.40625 -2.85157,-0.0781 0.0977,6.73828 q -0.35156,0.15625 -0.60547,0.15625 -0.97656,0 -0.97656,-2.16796 z" />
      <path
         id="path3447"
         style="font-style:normal;font-variant:normal;font-weight:normal;font-stretch:normal;font-size:20px;font-family:'Architects Daughter';-inkscape-font-specification:'Architects Daughter'"
         d="m 221.21487,213.90666 q 0.46875,0 0.46875,0.6836 0,0.80078 -0.66406,2.10937 -0.19531,0.39063 -0.37109,0.66406 l -0.9375,0.0781 1.09375,-3.4375 q 0.23437,-0.0977 0.41015,-0.0977 z" />
      <path
         id="path3449"
         style="font-style:normal;font-variant:normal;font-weight:normal;font-stretch:normal;font-size:20px;font-family:'Architects Daughter';-inkscape-font-specification:'Architects Daughter'"
         d="m 229.63284,220.95744 q 2.14844,0 2.14844,1.09375 0,0.82032 -1.19141,1.91407 -1.77734,1.62109 -4.78515,2.59765 -0.13672,0 -0.3125,-0.27344 -0.15625,-0.27343 -0.25391,-0.41015 -0.0781,-0.15625 -0.11719,-0.19531 2.2461,-0.74219 3.69141,-1.79688 0.97656,-0.70312 0.97656,-1.15234 0,-0.44922 -1.15234,-0.44922 -1.15234,0 -3.37891,0.54687 -1.01562,-0.0391 -1.75781,-0.72265 -0.64453,-0.60547 -0.64453,-1.21094 0,-0.625 0.35156,-1.13281 0.35156,-0.52735 0.9375,-0.97657 0.58594,-0.44921 1.36719,-0.82031 1.91406,-0.91797 3.96484,-0.91797 0.60547,0 1.17188,0.11719 0.46875,0 0.54687,0.41016 0.0781,0.41015 0.0781,1.34765 -1.15235,-0.52734 -2.59766,-0.52734 -1.79687,0 -2.96875,0.72266 -1.21094,0.70312 -1.25,1.83593 0,0.54688 0.80078,0.54688 l 1.42578,-0.15625 q 1.83594,-0.39063 2.94922,-0.39063 z" />
      <path
         id="path3451"
         style="font-style:normal;font-variant:normal;font-weight:normal;font-stretch:normal;font-size:20px;font-family:'Architects Daughter';-inkscape-font-specification:'Architects Daughter'"
         d="m 250.58987,218.8676 q -0.82031,-0.58594 -2.10937,-0.58594 -1.21094,0 -2.24609,0.44922 -1.95313,0.82031 -2.67579,2.10938 -0.3125,0.58593 -0.3125,1.25 0,0.11718 0,0.66406 0,0.52734 0.19532,1.44531 0.19531,0.89844 0.19531,1.83594 -0.41016,0.0195 -0.66406,0.0976 -0.25391,0.0781 -0.42969,0.0781 -0.17578,0 -0.3125,-0.15625 -0.11719,-0.15625 -0.27344,-0.60547 -0.0195,-0.11719 -0.0781,-0.66406 -0.0586,-0.54688 -0.15625,-1.32813 -0.0781,-0.78125 -0.19532,-1.69922 -0.0976,-0.9375 -0.19531,-1.83593 -0.21484,-1.95313 -0.33203,-2.8711 0,-0.46875 0.68359,-0.46875 0.41016,0 0.64454,0.35157 0.23437,0.33203 0.37109,0.78125 0.13672,0.42968 0.17578,0.85937 0.0586,0.42969 0.0977,0.60547 2.57812,-2.30469 6.40625,-2.30469 0.42968,0 0.89843,0.0195 0.11719,-0.0195 0.29297,-0.0195 0.17578,0 0.35157,0.23438 0.21484,0.27343 0.21484,0.66406 0,0.97656 -0.54688,1.09375 z" />
      <path
         id="path3453"
         style="font-style:normal;font-variant:normal;font-weight:normal;font-stretch:normal;font-size:20px;font-family:'Architects Daughter';-inkscape-font-specification:'Architects Daughter'"
         d="m 256.03909,224.62932 q 1.71875,0 5.17578,-1.5625 0.21485,0 0.35157,0.15625 0.13672,0.13672 0.13672,0.33203 -0.78125,1.32812 -2.98829,2.07031 -2.20703,0.74219 -4.12109,0.25391 -2.16797,-0.56641 -2.63672,-2.44141 -0.0391,-0.37109 -0.0391,-0.99609 0,-0.625 0.3125,-1.64063 0.33203,-1.03515 1.11328,-1.95312 0.78125,-0.91797 1.83594,-1.44531 1.05469,-0.52735 2.24609,-0.52735 1.13281,0 2.53906,0.78125 0.66407,0.3711 1.05469,0.83985 0.39063,0.46875 0.39063,0.95703 0,0.13672 -0.0195,0.27343 -0.0391,1.19141 -1.15235,1.50391 -0.48828,0.13672 -1.13281,0.13672 l -2.8125,-0.11719 q -1.40625,0 -2.14844,0.60547 -0.42969,0.33203 -0.60547,0.99609 0.48828,1.77735 2.5,1.77735 z m 3.47657,-6.03516 q -0.42969,-0.3125 -0.89844,-0.44922 -0.46875,-0.13672 -0.78125,-0.13672 -0.3125,0 -1.01563,0.21485 -0.70312,0.19531 -1.25,0.44922 -1.34765,0.625 -1.34765,1.30859 1.5625,0.13672 2.34375,0.13672 2.16797,0 2.92968,-0.37109 0.46875,-0.19532 0.46875,-0.48829 0,-0.35156 -0.44921,-0.66406 z" />
      <path
         id="path3455"
         style="font-style:normal;font-variant:normal;font-weight:normal;font-stretch:normal;font-size:20px;font-family:'Architects Daughter';-inkscape-font-specification:'Architects Daughter'"
         d="m 263.05081,218.43791 q -0.0391,-0.0976 -0.0391,-0.21484 0,-0.13672 0.0977,-0.35156 0.0976,-0.21485 0.27343,-0.3711 0.19532,-0.15625 0.41016,-0.13672 0.23437,0 0.37109,0.27344 l 3.28125,6.09375 q 0.15625,-0.23437 0.48828,-0.85937 0.35157,-0.64454 0.78125,-1.44532 0.44922,-0.80078 0.91797,-1.66015 0.48828,-0.87891 0.89844,-1.60157 0.9375,-1.66015 1.11328,-1.66015 0.41016,0 0.58594,0.3125 0.19531,0.29297 0.19531,0.44922 0,0.15625 0,0.21484 -1.09375,2.38281 -2.03125,4.39453 -0.91797,2.01172 -1.23047,2.61719 -0.29297,0.58594 -0.52734,0.9375 -0.41016,0.60547 -0.80078,0.60547 -0.39063,0 -0.89844,-0.60547 -0.50781,-0.625 -1.15234,-1.66016 -1.13282,-1.875 -2.73438,-5.33203 z" />
      <path
         id="path3457"
         style="font-style:normal;font-variant:normal;font-weight:normal;font-stretch:normal;font-size:20px;font-family:'Architects Daughter';-inkscape-font-specification:'Architects Daughter'"
         d="m 273.75394,222.28557 q 0,-2.30469 1.99218,-3.71094 1.58204,-1.11328 3.8086,-1.34766 0.11719,0 0.54687,0 0.42969,0 1.15235,0.25391 1.60156,0.54688 2.1875,1.93359 0.23437,0.54688 0.23437,0.9375 0,0.3711 -0.0195,0.52735 0,2.4414 -1.85547,3.84765 -1.71875,1.28907 -4.29687,1.28907 -1.85547,0 -2.8125,-0.85938 -0.9375,-0.85937 -0.9375,-2.87109 z m 1.34765,0.46875 q 0,1.21094 0.64453,1.64062 0.48829,0.3125 1.64063,0.3125 1.15234,0 2.03125,-0.17578 0.87891,-0.17578 1.5625,-0.60547 1.46484,-0.9375 1.46484,-2.91015 0,-1.17188 -0.625,-1.91407 -0.68359,-0.80078 -1.79687,-0.80078 -0.76172,0.13672 -1.54297,0.29297 -0.76172,0.15625 -1.44531,0.60547 -1.48438,0.95703 -1.9336,3.55469 z" />
      <path
         id="path3459"
         style="font-style:normal;font-variant:normal;font-weight:normal;font-stretch:normal;font-size:20px;font-family:'Architects Daughter';-inkscape-font-specification:'Architects Daughter'"
         d="m 284.86722,218.41838 q -0.0391,-1.05469 -0.0781,-1.875 -0.0391,-0.83984 -0.0586,-1.23047 0,-0.41015 -0.3125,-1.97265 0.17578,-0.23438 0.33203,-0.44922 0.17578,-0.21485 0.48828,-0.21485 0.6836,0 1.05469,5.76172 0.19531,3.33985 0.19531,6.67969 0,0.89844 -1.25,0.89844 l -0.15625,-0.0195 q 0,-1.01563 -0.0586,-2.59766 -0.0586,-1.58203 -0.0977,-2.75391 -0.0195,-1.17187 -0.0586,-2.22656 z" />
      <path
         id="path3461"
         style="font-style:normal;font-variant:normal;font-weight:normal;font-stretch:normal;font-size:20px;font-family:'Architects Daughter';-inkscape-font-specification:'Architects Daughter'"
         d="m 287.58206,223.39885 q 0,-0.3125 -0.0586,-0.85938 -0.0391,-0.5664 -0.0781,-1.23046 -0.0391,-0.66407 -0.0391,-1.34766 0,-0.68359 0.11719,-1.25 0.2539,-1.26953 1.05469,-1.26953 0.54687,0.15625 0.72265,0.39062 0.19531,0.23438 0.19531,0.58594 0,0.33203 -0.17578,0.83984 -0.64453,1.69922 -0.64453,3.06641 0,0.44922 0.0586,0.95703 0.3125,1.3086 2.14843,1.3086 0.95703,0 1.81641,-0.33204 1.64062,-0.60546 2.22656,-1.42578 0.17578,-0.89843 0.17578,-1.5625 0,-0.68359 -0.0586,-1.21093 -0.0391,-0.52735 -0.11719,-1.15235 -0.0586,-0.64453 -0.0781,-1.40625 0.2539,-0.11719 0.48828,-0.11719 0.2539,0 0.50781,0.25391 0.27344,0.25391 0.44922,0.95703 0.19531,0.70313 0.25391,1.66016 0.0586,0.9375 0.0586,1.95312 0.0195,1.01563 0.0195,1.97266 0,0.9375 0.0781,1.62109 -0.23438,0.21485 -0.44922,0.21485 -0.78125,0 -1.15235,-1.5625 -0.2539,0.21484 -0.85937,0.52734 -1.28906,0.70313 -3.04688,0.9375 -0.33203,0.0391 -0.74218,0.0391 -0.41016,0 -1.03516,-0.15625 -0.60547,-0.15625 -1.15234,-0.72265 -0.54688,-0.56641 -0.6836,-1.67969 z" />
      <path
         id="path3463"
         style="font-style:normal;font-variant:normal;font-weight:normal;font-stretch:normal;font-size:20px;font-family:'Architects Daughter';-inkscape-font-specification:'Architects Daughter'"
         d="m 300.78519,224.12151 0.0391,-3.125 q 0,-0.74219 -0.13672,-1.26954 l -3.02734,0 -0.0391,-1.34765 2.92969,0 0,-5.03906 q 0.0586,-0.17579 0.23438,-0.35157 0.27343,-0.27343 0.44922,-0.27343 0.19531,0 0.33203,0.0391 0.13672,0.0391 0.29297,0.27344 0.3125,1.28906 0.3125,3.88671 0,0.64454 0.0586,1.26954 0.625,-0.0781 1.25,-0.0781 0,0 1.01562,0 0.3711,0 0.6836,-0.0391 l -0.0586,1.40625 -2.85156,-0.0781 0.0977,6.73828 q -0.35156,0.15625 -0.60547,0.15625 -0.97656,0 -0.97656,-2.16796 z" />
      <path
         id="path3465"
         style="font-style:normal;font-variant:normal;font-weight:normal;font-stretch:normal;font-size:20px;font-family:'Architects Daughter';-inkscape-font-specification:'Architects Daughter'"
         d="m 307.67972,216.81682 q 0.2539,3.65234 0.42969,8.45703 -0.11719,0.60547 -0.9375,0.60547 -0.21485,0 -0.44922,-0.0781 -0.21485,-0.0976 -0.27344,-0.2539 l 0,-8.73047 1.23047,0 z m -1.81641,-2.65625 q 0,-0.6836 0.80078,-0.6836 0.52735,0 0.85938,0.23438 0.0586,0.21484 0.0586,0.42969 0,0.19531 -0.15625,0.39062 -0.15625,0.19531 -0.46875,0.19531 -0.3125,0 -0.625,-0.13671 -0.3125,-0.15625 -0.46875,-0.42969 z" />
      <path
         id="path3467"
         style="font-style:normal;font-variant:normal;font-weight:normal;font-stretch:normal;font-size:20px;font-family:'Architects Daughter';-inkscape-font-specification:'Architects Daughter'"
         d="m 309.45706,222.28557 q 0,-2.30469 1.99219,-3.71094 1.58203,-1.11328 3.80859,-1.34766 0.11719,0 0.54688,0 0.42969,0 1.15234,0.25391 1.60156,0.54688 2.1875,1.93359 0.23438,0.54688 0.23438,0.9375 0,0.3711 -0.0195,0.52735 0,2.4414 -1.85547,3.84765 -1.71875,1.28907 -4.29688,1.28907 -1.85547,0 -2.8125,-0.85938 -0.9375,-0.85937 -0.9375,-2.87109 z m 1.34766,0.46875 q 0,1.21094 0.64453,1.64062 0.48828,0.3125 1.64062,0.3125 1.15235,0 2.03125,-0.17578 0.87891,-0.17578 1.5625,-0.60547 1.46485,-0.9375 1.46485,-2.91015 0,-1.17188 -0.625,-1.91407 -0.6836,-0.80078 -1.79688,-0.80078 -0.76172,0.13672 -1.54297,0.29297 -0.76171,0.15625 -1.44531,0.60547 -1.48437,0.95703 -1.93359,3.55469 z" />
      <path
         id="path3469"
         style="font-style:normal;font-variant:normal;font-weight:normal;font-stretch:normal;font-size:20px;font-family:'Architects Daughter';-inkscape-font-specification:'Architects Daughter'"
         d="m 327.83597,221.71916 q 0,-2.32422 -0.25391,-3.41797 0.15625,-0.29297 -0.46875,-0.29297 -0.66406,0 -1.71875,0.33204 -1.05469,0.33203 -1.71875,0.66406 -1.58203,0.76172 -1.75781,1.48437 l 0,5.3125 -1.30859,0 q -0.25391,-0.66406 -0.25391,-3.73047 0,-2.73437 0.0977,-4.02343 0.11718,-1.28907 0.17578,-1.46485 0.50781,-0.33203 0.82031,-0.33203 0.48828,0 0.48828,1.15235 0,0.44921 -0.0586,0.8789 -0.0391,0.41016 -0.0391,0.56641 3.16407,-2.32422 4.90235,-2.32422 1.97265,0 2.24609,3.18359 0.11719,1.11328 0.11719,3.08594 l -0.0195,1.54297 q 0,0.85937 0.0391,1.66016 -0.19531,0.11718 -0.3125,0.11718 -0.0586,-0.0195 -0.25391,-0.0586 -0.19531,-0.0391 -0.50781,-0.0586 -0.19531,-0.78125 -0.21484,-1.58204 -0.0195,-0.82031 -0.0195,-1.5039 l 0.0195,-1.19141 z" />
    </g>
    <path
       id="path3346"
       d="m 185.46452,186.1564 c 0,0 26.90097,23.68819 60.10408,22.22335 34.34518,-1.51523 58.08377,-22.72843 58.08377,-22.72843"
       style="fill:none;fill-rule:evenodd;stroke:#000000;stroke-width:1px;stroke-linecap:butt;stroke-linejoin:miter;stroke-opacity:1" />
  </g>
</svg>
