<svg xmlns="http://www.w3.org/2000/svg" width="1030" height="326" viewBox="0 0 1030 326"><g fill-rule="evenodd" clip-rule="evenodd"><path d="M931.02 138.843c-.54 8.397-1.94 17.403-1.134 26.768.712 8.28 2.232 15.66 11.76 14.16 3.91-.61 10.93-3.68 10.32 2.88-.693 7.47-19.326 6.65-24 3.36-6.83-4.79-7.35-16.16-7.2-26.16.102-6.62 1.194-13.73 1.253-19.75-3.43-.653-8.86.71-8.22-3.28.52-3.248 6.984-2.473 10.022-3.78 2.84-9.43 4.214-16.73 6.313-24.125 1.14-4.017 3.006-8.67 4.563-12.75 3.954-10.37 9.263-19.864 15.25-28.313 3.13-4.417 6.244-10.665 12.09-12.393 7.08-2.094 11.305 2.923 11.52 9.12.285 8.143-3.223 14.35-5.76 21.36-1.503 4.154-3.446 8.546-5.28 12.48-3.84 8.24-7.128 17.172-12 23.76-1.303 1.76-3.237 3.33-4.8 5.04-4.345 4.75-9.233 8.236-14.708 11.632zm12.787-23.633c1.014-1.695 2.608-2.992 3.6-4.56 1.778-2.812 3.13-6.687 4.8-10.08 1.704-3.46 3.92-6.505 5.28-9.84 1.413-3.464 2.747-7.16 4.08-10.8 1.403-3.832 3.516-8.14 3.84-11.28.178-1.72-.15-6.643-2.16-5.52-4.96 2.77-7.364 8.918-10.56 14.4-2.113 3.625-4.42 8.402-6.96 12.72-2.32 3.947-4.596 9.004-6 13.68-1.574 5.24-3.69 10.447-4.8 14.88-.905 3.613-1.72 6.323-1.92 9.36 5.426-1.826 8.076-8.408 10.8-12.96z"/><path fill="none" d="M933.006 128.17c.2-3.038 1.016-5.747 1.92-9.36 1.11-4.433 3.227-9.64 4.8-14.88 1.405-4.676 3.632-10.455 5.73-14.525 2.47-4.79 4.574-8.5 6.688-12.125 3.195-5.48 6.144-11.38 11.103-14.15 2.01-1.123 2.338 3.8 2.16 5.52-.324 3.14-2.437 7.448-3.84 11.28-1.333 3.64-2.667 7.336-4.08 10.8-1.36 3.334-2.45 6.964-4.155 10.425-1.67 3.394-2.783 5.814-4.875 9.563-1.132 2.028-2.61 4.243-3.625 5.938-2.725 4.55-6.4 9.688-11.826 11.514z"/><path d="M964.206 165.633c-.047-1.313-2.083-.637-2.16-1.92-.18-1.7.27-2.772.48-4.08.48-.802 2.107-.132 2.68-.84 1.49-4.794 2.93-12.366 6.68-16.2 1.877-1.918 4.945-4.862 8.445-5.362 4.68-.66 9.75-.13 11.72 5.13.728 4.69.1 7.068-1.46 11.25-1.727 4.63-4.36 9.26-8.437 10.567-4.313 1.375-10.44-.875-10.94 3.5-.61 5.35 10.876 9.517 15.376 9 6.113-.702 11.314-4.097 15.687-7.563 2.837-2.25 5.744-5.193 8.064-7.314 3.17-2.897 4.773-5.116 8.377-7.814 1.6-1.197 4.63-.99 5.624.876.92 1.72-.093 4.073-1.5 5.86-2.97 3.778-4.87 5.898-8.5 8.89-3.533 2.914-6.436 5.687-10.522 8.267-6.8 4.292-20.88 7.194-30.222 2.97-2.04-.926-4.55-2.847-5.75-4.19-2.196-2.45-3.966-5.57-3.624-11.024zm16.438-21.73c-4.09 1.08-10 12.703-7.797 15.25 9.672 3.765 14.922-13.485 12.484-14.672-1.09-.55-1.43-1.43-4.68-.57z"/><path fill="none" d="M983.886 144.01c.21 7.6-2.666 17.36-11.43 15.195-.946-5.668 5.25-12.878 8.79-15.195.65-.425 1.542-.557 2.64 0z"/><path d="M899.405 55.21c.488 1.195-4.004 31.773-7.68 46.8-1.823 7.455-2.986 15.026-4.56 22.56-1.57 7.52-3.48 15.862-3.647 23.772 2.39.295 4.25-.35 6.527-.252 5.74.247 12.45 3.476 14.4 7.44 2.123 4.32 1.277 12.25-.48 16.8-.316.818-.62 1.83-.947 2.637-.422 1.046-.836 1.907-1.213 2.643-.324.632-.79 1.446-1.287 2.232-.57.904-1.222 1.668-1.593 2.088-1.77 2.005-5.97 4.912-10.32 5.52-7.796 1.09-16.07-2.417-17.76-8.16-.96-3.26-.66-8.23-.24-11.76 1.142-9.562 3.9-19.105 5.52-28.8 1.607-9.627 3.743-19.24 5.52-28.8 1.753-9.422 4.13-18.853 6.24-28.08 2.148-9.386 4.84-27.14 6.636-28.098 2.03-1.468 4.06-.642 4.89 1.458zm-16.32 101.28c-5.175 3.935-5.385 22.797 1.44 24.48.93.23 3.603-.044 4.32-.24 2.003-.543 5.934-3.723 6.96-5.76.434-.858 1.216-3.57 1.68-5.76 1.978-9.31.14-15.28-10.08-13.92-2.005.268-3.215.36-4.32 1.2z"/><path fill="none" d="M887.405 155.29c10.22-1.36 12.058 4.61 10.08 13.92-.464 2.19-1.246 4.902-1.68 5.76-1.026 2.037-4.957 5.217-6.96 5.76-.718.196-3.39.47-4.32.24-6.825-1.683-6.615-20.545-1.44-24.48 1.105-.84 2.315-.932 4.32-1.2z"/><path d="M861.98 144.623c-2.122 1.364-5.81 2.36-8.4.72-3.14-4.904-1.306-13.02 6.72-11.04 3.346 1.307 3.985 7.298 1.68 10.32zm-15.21 38.845c-.786-2.313 1.03-14.504 2.957-21.938.916-3.536 1.528-9.688 4.08-10.8 6.53-2.846 4.448 6.83 3.6 11.04-.612 3.038-1.51 7.427-2.033 10.427-.672 3.845-.937 9.858-3.007 11.893-1.575 1.547-4.605.955-5.598-.622zm-46.963-32.018c-3.448 1.682-8.646-1.634-12.72-2.16-3.07-.396-6.033-.058-6.48 2.16-.588 2.91 2.693 5.66 4.8 7.2 2.36 1.726 5.043 3.62 6.48 5.52 1.76 2.324 3.474 6.003 2.64 10.56-.433 2.366-2.77 6.16-5.04 7.68-5.46 3.656-18.77 2.27-23.28-1.68-1.5-1.314-2.678-4-1.2-6 6.002-1.545 12.027 4.108 18.72 1.92 2.214-.723 3.903-3.63 2.64-7.2-1.652-4.674-9.812-5.838-12.478-10.8-.74-1.367-1.6-4.054-1.69-5.52-.236-4.027 2.156-8.298 5.76-9.36 6.62-1.95 14.562 1.117 18.72 2.88 2 .85 4.12 1.8 3.12 4.8zm37.44.48c-3.45 1.682-8.647-1.634-12.72-2.16-3.07-.396-6.034-.058-6.48 2.16-.59 2.91 2.692 5.66 4.8 7.2 2.36 1.727 5.042 3.62 6.48 5.52 1.76 2.324 3.473 6.003 2.64 10.56-.434 2.366-2.77 6.16-5.04 7.68-5.46 3.657-18.77 2.27-23.28-1.68-1.5-1.314-2.68-4-1.2-6 6-1.545 12.026 4.107 18.72 1.92 2.213-.723 3.902-3.63 2.64-7.2-1.653-4.674-9.813-5.838-12.48-10.8-.734-1.367-1.594-4.054-1.68-5.52-.235-4.027 2.157-8.298 5.76-9.36 6.618-1.95 14.563 1.117 18.72 2.88 2 .85 4.12 1.8 3.12 4.8zm-107.79 29.184c-5.2-6.415-6.565-17.815-2.37-25.583 2.19-4.05 6.475-8.31 10.8-9.12 13.07-2.43 18.6 5.65 18.24 17.76-.186 6.25-4.527 13.87-7.92 16.56-4.405 3.5-12.263 4.71-18.75.39zm3.87-10.944c.47 4.298 4.315 6.365 8.4 5.04 2.84-.922 5.82-6.004 6.24-10.32.662-6.854-.5-11.164-6-10.32-7.003 1.075-9.514 7.588-8.64 15.6z"/><path fill="none" d="M741.966 154.57c5.503-.844 6.664 3.466 6 10.32-.417 4.316-3.398 9.398-6.24 10.32-4.083 1.325-7.93-.742-8.4-5.04-.873-8.012 1.638-14.525 8.64-15.6z"/><path d="M685.706 184.81c-3.294 16.08-7.41 35.947-10.46 52.56-1.28 6.973-2.016 14.074-3.6 20.88-1.26 5.41-2.145 8.755-3.565 16.344-.53 2.843-2.1 8.485-2.67 11.018-.53 2.336-.92 4.62-1.51 7.045-1.034 4.226-1.78 15.588-6.17 16.235-6.74.995-3.58-10.165-2.88-13.68.86-4.312 2.65-11.454 3.6-15.84 3.897-17.88 8.26-39.215 10.95-55.84.766-4.732 1.595-8.127 2.73-14 1.83-9.443 3.49-18.85 5.04-28.32 1.276-7.81 1.71-16.244 4.08-23.04 1.73-4.96 6.965-12.538 12.48-13.2 10.687-1.285 18.9 5.744 21.12 13.2 2.37 7.96-.85 16.49-4.8 20.88-6.292 6.994-14.022 5.006-24.34 5.76zm19.3-21.36c-.488-3.918-4.92-8.2-9.36-7.68-3.648.426-4.617 4.405-5.52 7.92-1.08 4.21-1.882 8.752-2.16 12.96 9.103 2.513 18.127-4.48 17.04-13.2z"/><path fill="none" d="M687.966 176.65c.278-4.208 1.08-8.75 2.16-12.96.902-3.515 1.87-7.494 5.52-7.92 4.44-.52 8.872 3.762 9.36 7.68 1.087 8.72-7.937 15.713-17.04 13.2z"/><path d="M621.485 181.13c-1.533 5.236-9.346 6.375-17.04 5.76-6.562-.522-13.256-2.938-12.24-8.4 3.704-1.873 5.975 2.183 10.32 2.88 2.575.415 10.698.884 11.52-1.44.72-2.03-.232-3.953-1.65-6.025-2.652-3.873-4.196-5.012-7.126-8.875-1.26-1.653-2.87-3.166-3.47-4.78-2.89-7.747 2.844-14.513 9.36-15.36 3.12-.405 7.04.886 9.36 2.16 2.114 1.167 3.294 3.593 3.6 4.8.49 1.97.04 9.1-3.36 8.16-2.13-.588.312-3.855-2.16-6.96-1.81-2.27-8.078-2.258-9.84 0-2.818 3.606.78 7.06 2.64 9.36 1.18 1.46 2.22 3.277 3.36 4.56 3.43 3.858 7.47 6.595 6.72 14.16zm-36.718-53.68c6.747-1.647 9.915 4.205 7.68 10.32-.383 1.05-2.102 2.77-3.12 3.12-5.366 1.842-11.3-2.505-9.12-9.6.362-1.18 1.772-3.16 4.56-3.84zm.44 22.955c2.98 1.655.005 11.304-1 17.313-1.03 6.156-2.89 17.99-4.576 18.95-2.73.994-4.72-.1-5.86-2.075-.87-2.188.89-13.65 2.36-20.183 1.59-7.045 1.898-16.817 9.08-14.005zm-88.28 32.965c-6.696 1.186-10.72-.912-14.16-5.04-3.443-4.13-6.043-10.754-3.12-18.48 1.205-3.188 4.785-8.017 7.44-10.56 1.735-1.663 5.53-4.54 7.44-5.04 6.83-1.786 14.932 1.167 17.28 5.04 1.11 1.83 2.235 6.94 1.68 10.56-1.27 8.258-7.488 10.452-7.2 20.64.093 3.34.807 7.23 1.44 10.8 1.727 9.76 3.25 20.78 5.52 30.72.765 3.355.957 6.663 1.77 10.06 1.626 6.773 3.373 13.268 4.708 19.94 1.596 7.972 3.848 18.96 2.64 29.52-.206 1.813-.744 4.258-1.222 6.376-.784 3.474-1.95 5.89-3.098 8.745-3.84 6.13-7.08 10.71-12.96 14.64-2.567 1.72-5.73 3.54-9.13 4.93-3.396 1.4-6.776 2.82-9.83 3.48-5.7 1.228-13.065.627-19.44.24-6.96-.42-13.245-2.03-18.24-3.6-1.626-.51-2.903-1.193-4.553-1.862-1.298-.525-1.298-.525-4.688-2.25-1.344-.684-3.105-1.295-4.563-2.125-1.88-1.073-3.55-1.906-5.81-2.813-2.58-1.038-4.37-2.06-7.31-3.5-3.31-1.62-13.25-4.478-12.19-9.05.95-4.11 8.5-.55 11.13.55 1.86.78 4.188 1.84 6.15 2.81 1.938.957 4 1.613 6.1 2.566 4 1.813 8.07 2.978 12.5 4.938 2.53 1.12 5 2.094 7.8 2.82 2.825.73 5.73 1.506 8.88 1.68 6.27.35 14.106 1.184 20.4.24 4.68-.7 9.12-1.984 12.61-4.8 3.25-2.625 4.08-3.458 5.313-4.5 1.237-1.046.91-1.03 3.063-3 1.656-1.515 3.014-3.31 3.737-4.5 1.56-2.565 3.22-7.295 4.08-10.32 1.125-3.973 1.614-8.39 1.92-12.48.75-10.13-2.39-18.033-4.08-27.36-.3-1.65-.717-3.06-1.035-4.652-.25-1.248-.657-2.8-.887-3.987-.41-2.127-1.134-4.11-1.44-6.24-.92-6.393-2.31-12.855-3.61-19.21-.906-4.417-1.63-8.73-2.39-13.19-.705-4.167-1.175-8.55-2.636-12.722zm-9.6-23.76c-1.92 3.973-1.747 12.115 1.68 12.96 4.61 1.137 10.26-2.532 12.24-6.24 1.015-1.9 2.575-5.53 2.4-8.4-.247-4.02-3.768-4.796-7.68-4.08-2.973.545-7.273 2.93-8.64 5.76z"/><path fill="none" d="M495.966 153.85c3.914-.716 7.434.06 7.68 4.08.176 2.87-1.384 6.5-2.4 8.4-1.98 3.708-7.63 7.377-12.24 6.24-3.426-.845-3.6-8.987-1.68-12.96 1.368-2.83 5.668-5.215 8.64-5.76z"/><path d="M425.894 147.468c2.438-3.375 4.007-6.25 5.752-8.257 8.435-9.69 29.373-11.36 33.36 2.16.907 3.08.354 8.45.24 13.2-.1 4.22-.15 8.51-.24 12.72-.182 8.62.978 21.68-3.6 22.56-5.707 1.17-5.322-4.34-5.04-10.32.374-7.91 1.118-14.85.72-23.28-.395-8.35.908-15.86-6.255-17.09-2.95-.51-5.36.508-7.42 1.74-4.52 2.708-10.25 9.67-12.72 15.12-1.14 2.52-2.79 4.128-3.912 7.188-1.11 3.01-2.473 7.858-2.875 10.584-.773 5.24-.813 9.14-2.875 13.376-2.184 1.26-4.73 1.462-6.877.062-2.937-1.75 2.776-34.486 5.023-49.928.606-4.18 1.45-10.236 5.226-10.325 5.804-.136 1.186 15.5 1.5 20.5zm-23.374-10.563c-2.277 1.004-5.264.67-6.633-.69-2.646-7.51 8.094-8.694 8.88-3.6.264 1.72-.686 3.103-2.248 4.29zm-10.234 51.505c-2.56.08-4.518-.442-6-1.44-2.893-2.502 2.485-21.646 4.56-31.44.688-3.247.97-7.788 2.64-9.6 2.137-2.317 7.26-1.784 7.72.35.498 2.31-.955 9.476-.76 8.29.47-2.86-.85 5.707-1.44 8.16-1.795 7.482-2.628 13.954-4.08 19.68-.678 2.678-.44 4.86-2.64 6zm-41.33-45.817c2.688-1.5 3.622-2.125 5.875-2.75 3.19-.884 7.03.178 8.82 1.25 4.52 2.71 7.668 8.95 8.15 16.813.12 1.86.44 4.323.49 6.265.22 8.26-.23 22.15-2.883 22.9-1.98.396-3.95.696-5.034-.57-1.62-1.89-.72-10.286-.72-13.44 0-4.91.247-9.726-.24-13.44-.32-2.425-1.206-6.77-2.64-7.92-2.847-2.283-8.066.086-9.84 1.44-6.32 4.83-7.095 18.84-8.16 28.8-.142 1.33-.206 2.85-.72 3.6-1.855 2.71-9.26.724-10.08-1.2-1.082-2.54.557-9.53.96-13.68.355-3.654 1.018-7.82 1.718-11.87.74-4.272 1.185-8.49 1.883-12.37 1.303-7.254 2.345-14.23 3.84-22.32 1.585-8.602 3.11-15.002 4.56-21.6 1.9-8.644 3.65-19.26 5.76-28.8.516-2.34 1.886-7.08 3.84-7.68 8.66-2.66 4.52 11.18 3.553 15.96-1.092 5.39-1.484 8.252-2.687 13.94-1.61 10.38-5.624 31.253-6.437 46.683zM328.01 71.53c-.31 7.107-2.302 12.764-4.08 18.96-2.705 9.432-4.682 19.107-6.96 29.04-1.106 4.83-3.077 11.76-4.077 17.25 4.625-2.188 8.983-6.11 15.118-7.65 1.78-.446 4.99 1.493 5.01 3.65.05 4.35-10.24 8.637-13.81 10.375-4.06 1.978-7.32 3.732-11.11 5.415-.84 4.202-1.648 8.337-1.92 12.72-.246 3.962-.494 8.937.72 12.72.716 2.232 3 4.575 4.8 5.76 3.25 2.14 6.877 2.2 4.78 7.988-5.318 2.473-11.64.21-16.06-2.468-7.103-6.323-7.244-23.344-4.64-34.198-6.5 1-15.31 3-16.156.063-.563-6.5 3.763-6.588 7.093-7.875 1.26-.486 5.273-1.316 6.983-1.67 1.825-.378 4.32-.21 5.04-.96 1.786-1.87 1.16-2.683 2.4-5.52.832-6.548 2.385-13.663 4.56-21.36 1.937-6.87 3.755-13.955 5.76-20.16 1.78-5.523 3.125-11.578 5.04-17.04 1.235-3.533 2.115-7.102 6-7.68 3.06-.456 4.104 1.02 5.52 2.64zm-86.74 72.688c.065 10.21-4.294 19.295-5.943 28.593-.353 1.99-.35 5.13.72 6 1.33 1.09 5.54.67 7.44 0 4.346-1.51 7.77-3.59 9.845-7.96.725-1.53 1.58-4.77 2.125-6.25 2.084-5.652 2.417-13.205 5.438-17.56 1.818-2.624 2.685-3.15 5.873-2.3 4.68 6.25.364 12.385-.48 20.16-.464 4.277-.91 9.24-.48 14.16.33 3.796 1.8 8.295 2.65 13.042.394 2.2.915 4.1 1.43 6.157 1.254 5.01 3.12 11.31 4.32 16.56 1.307 5.713 2.37 10.8 3.36 17.52 1.098 7.457 1.02 15.2-1.44 21.84-.827 2.23-1.685 5.062-2.88 6.72-1.422 1.97-2.99 3.462-5.29 5.265-5.158 4.045-10.867 5.926-20.39 6.255-4.32.15-9.39.243-13.2-.477-2.017-.38-4.407-.673-6.973-1.274-2.69-.633-5.803-1.43-8-2.063-1.287-.37-2.28-.802-3.375-1.187-1.314-.463-2.223-1.054-3.252-1.475-2.465-1.01-4.738-2.435-6.935-3.71-1.1-.64-2.145-1.222-3.145-1.81-1.175-.686-3.23-2.13-4.917-3.44-4.42-3.442-10.99-7.47-8.52-16.72.57-2.102 2.78-6.413 4.59-8.593 1.77-2.13 5.27-4.656 7.418-6.046 1.848-1.194 6.98-2.923 10.32-3.6 4.197-.85 12.59.343 12.96 5.76-5.89.196-12.096 1.5-16.32 4.56-3.57 2.588-7.887 7.73-5.28 14.16.75 1.857 1.657 3.82 3.905 5.54 3.29 2.52 5.88 3.985 9.625 6.064 1.214.676 3.082 1.7 3.99 2.078 2.3.958 7.365 2.217 9.84 2.64 7.254 1.244 19.045.855 24.72-1.44 5.01-2.026 6.964-5.745 8.64-7.92 2.34-3.04 5.156-9.158 5.28-14.398.06-2.58-.225-6.386-.48-9.6-.203-2.527-.755-4.958-1.24-7.485-.298-1.54-.993-2.687-1.315-4.063-.287-1.217-.69-2.627-1.05-3.813-1.79-5.92-2.9-11.99-4.32-18-.59-2.5-1.14-4.82-1.694-7.44-.55-2.588-.835-5.405-2.146-7.92-3.105-1.828-5.733 4.444-10.292 6.484-3.87 1.73-14.17 1.483-16.374-2.065-5.313-8.813.876-23.687 3.147-33.705.867-3.83.873-7.535 4.205-8.542 1.483-.45 3.206-.327 3.894 1.313zm-50.344-13.448c1.338 2.398-.772 6.188.48 8.4 2.688.188 3.227-2.165 5.04-3.12 2.1-1.105 5.717-2.466 8.64-2.4 8.795.204 10.293 9.11 9.6 19.68-.396 6.044-1.404 13.704-2.16 19.68-.822 6.5-1.653 17.02-3.6 17.76-4.385 1.425-6.303.01-7.2-4.32.278-10.1 1.937-20.166 2.64-30.48.213-3.133 1.18-7.124-1.68-8.88-6.34-.756-8.813 4.75-11.28 8.88-1.97 3.298-2.906 7.128-4.32 12-.43 1.48-.918 2.5-1.45 3.978-.488 1.354-.934 4.027-1.346 5.357-1.486 4.793-1.915 9.182-4.883 12.746-2.367 1.9-3.2 1.65-5.76-.47-.056-3.54 1.847-11.744 3.144-16.77 1.32-5.082 1.95-8.61 3.34-13.71 1.7-6.24 2.76-12.83 4.08-19.144.66-3.165 1.09-7.973 2.4-9.176 2.12-1.657 3.52-1.407 4.32 0zm-85.053-5.74c5.88-1.386 10.008-5.056 14.494-7.9 3.215-2.04 6.578-4.612 11.34-4.037 2.863 1.522 4.947 2.857 4.5 6.677-.244 2.088-3.354 4.07-5.52 5.76-2.395 1.868-4.852 3.044-6.96 4.32-5.424 3.283-11.054 4.947-13.92 8.64-.55 5.448 1.055 9.104 2.4 12.79.717 1.964 1.44 3.588 2.16 5.45.736 1.9 2.628 4.352 4.08 6.72 2.77 4.52 5.64 7.7 9.26 11.664 1.89 2.07 3.943 3.818 5.86 4.896 5.61 3.155 17.8 3.68 24.96.96 2.452-.932 4.4-2.878 6.96-2.88 4.457 1.778.645 6.225-2.03 8.357-2.03 1.618-4.534 2.698-6.61 3.643-2.15.98-4.222 1.464-6.974 2.023-1.087.22-3.482.505-4.066.617-3.363.646-9.037.498-11.76-.24-1.057-.286-1.91-.676-3.09-1.127-.982-.376-1.785-.874-2.67-1.273-6.034-2.726-8.033-5.815-12.664-10.56-2.434-2.493-6.002-6.912-7.497-9.6-.72-1.297-1.884-3.048-2.493-4.537-.847-2.07-1.61-4.09-2.646-7.513-.894-2.657-.59-1.757-1.1-3.31-1.348-4.106-2.11-9.09-4.56-12.24-5.288.797-8.912 3.58-13.823 5.094-2.378.733-1.673.356-6.61 1.793 0 0-5.626.938-7.75 1.063-5.123.3-12.497.375-15.74 2.85-3.074 2.525-4.574 4.545-7.574 8.588-1.408 1.897-3.045 3.925-4.563 5.5-2.028 2.104-3.996 4.218-6.343 6.552-1.082 1.077-2.19 2.134-3.36 3.12-1.215 1.023-2.737 2.095-4.026 3.015-2.067 1.476-3.73 3.034-5.574 4.425-1.383 1.043-5.44 3.88-7.2 4.56-1.51.585-3.946 1.175-5.04.96-1.33-.26-3.61-1.86-3.6-4.32.01-2.397 3.065-4.012 4.32-5.04 3.11-2.546 6.873-5.34 9.552-7.792 1.227-1.122 3.225-3.182 4.848-5.167 3.26-3.98 5.017-6.28 8.64-10.8.93-1.15 4.168-4.5 4.08-5.52-.143-1.65-2.268-2.29-3.922-3.11-1.312-.65-8.063-3.44-9.277-6.24-1.39-3.21 1.277-6.63 3.34-6.694 5.688-.95 9.875.25 14.5 1.375 2.977.4 4.063.814 6.4 1 2.708-2.57 5.035-5.447 7.1-9 3.692-4.19 5.675-8.684 8.5-13.32 3.017-4.95 7.157-10.232 9.875-15.574 2.405-4.727 5.053-8.657 7.885-13.225 1.083-1.745 2.43-3.775 3.428-5.63 1.296-2.407 2.597-4.464 4.012-7.09 2.643-4.9 4.67-10.382 6.96-15.6 1.147-2.61 2.32-5.33 3.215-7.746 1.55-4.19 2.77-8.206 4.465-12.174 1.133-2.657 2.127-4.95 3.035-7.64.393-1.166 1.098-2.556 1.525-3.64 1.923-4.896 4.414-9.158 6.913-13.487.626-1.082 1.022-2.07 1.728-3.072 1.308-1.86 6.35-6.852 7.92-2.4.4 1.14-.117 5.108-.48 7.68-.344 2.438-1.344 4.76-1.98 7.11-.503 1.858-1.006 3.57-1.62 5.373-2.863 8.41-4.88 15.128-7.92 25.92-1.547 5.492-3.79 11.972-5.04 18.72-.255 1.377-.858 3.287-1.045 4.675-.35 2.625-1.03 4.775-1.35 7.566-.13 1.168-.54 2.885-.64 4.123-.28 3.37-.73 6.296-1.034 9.797-.322 3.69-.326 8.292-.24 12.24.1 4.723.478 10.697 2.067 13.9zM94.446 84.49c-2.297 1.862-2.57 4.346-4.24 7.165-1.472 3.478-3.128 5.84-4.4 8.435-.936 1.91-1.502 3.306-2.6 5.128-1.13 1.875-2.216 3.436-3.16 5.672-1.627 3.854-4.164 9.88-2.16 6 1.335-2.584-3.35 4.855-4.8 7.44-1.496 2.664-3.015 5.32-4.32 8.16-1.83 2.01-4.02 3.66-5.04 6.48 2.045.84 4.63.56 6.96 0 3.22-.774 7.115-2.11 10.8-3.12 4.238-1.163 10.513-2.984 13.2-5.28 1.21-4.084-.19-7.807-.48-11.28-1.01-12.056 2.28-23.68.96-34.8h-.72z"/><path fill="none" d="M94.686 84.49h.48c1.32 11.12-1.97 22.744-.96 34.8.29 3.473 1.69 7.196.48 11.28-2.688 2.296-8.962 4.117-13.2 5.28-3.685 1.01-7.58 2.346-10.8 3.12-2.33.56-4.915.84-6.96 0 2.063-3.44 2.4-4.93 4.23-6.94 2-2.833 3.634-5.037 5.13-7.7 1.452-2.585 2.91-5.09 4.245-7.675.96-1.854 2.14-3.442 3.05-5.375.747-1.59 1.93-3.602 3.035-5.43 1.098-1.822 1.464-3.85 2.4-5.76 1.27-2.596 2.916-5.334 4.4-8.435 1.414-2.885 1.94-5.303 4.24-7.165h.24z"/></g></svg>
