<svg height="600" width="1920" xmlns="http://www.w3.org/2000/svg" style="position:relative;top:-.3125px" overflow="hidden">
<path fill="none" stroke="#39AEA9" d="M918-50S622 145 483 358M918-50s758 62 778 241M918-50s1037 627-105 661M918-50S109 569 171 335M918-50s-97 461-462 269M918-50s613 503-760 495M918-50s15 297 364 403M918-50s451 16 837 681M918-50s230 242-883 361M918-50s1046 319 270 337M918-50s694 183-522 456M918-50s424 334 1036 135M918-50s323 347-688 343M918-50s802 45 962 335M918-50s218 222 384 104M918-50S700 235 761 135M918-50s50 237 569 281M918-50s995 648-513 432M918-50s136 143-560 659M918-50s579 290-37 46M918-50s1039 491 903 635M918-50s338 694 212 9M918-50s839 341 488 269M918-50s191 272-838 174M918-50s631 58-109 528M918-50s792 281 318 471M918-50s-117 236 867 523M918-50S-24-48 569 77M918-50s809 533-368 606M918-50s-61 625-101 618M918-50S193 137 37 599M918-50s723 155-436 657M918-50s705 122 196 614M918-50s5 150 772 475M918-50s164 456 653 158M918-50s269 532 692 54M918-50s980 659-486 262M918-50S693 535 597 449M918-50s-38 603 133 265M918-50s873 537-107 140M918-50S411 208 391 98M918-50S483 88 1756 579M918-50S128 482 506 372M918-50s595 674-810 672M918-50s316 630 265 569M918-50s-67 168 246 497M918-50s861 239 240 96M918-50s251 268-615 217M918-50s-810 683 403 454M918-50S154 636 252 271M918-50s403 585 716 204M918-50s921 16-127 401M918-50s381 41-200 494M918-50s-905 0 161 541M918-50s898 657 10 674M918-50s458 545-696 97M918-50S321 287 1898 95M918-50s981 537-165 57M918-50s123 202-832 82M918-50s184 143 28 89M918-50s-767 428 856 194M918-50S155 632 512 340M918-50s1026 234 879 377M918-50s-30 527 841 41M918-50S4 386 1646 283M918-50s834 54 321 208M918-50s559 89 396 308M918-50S193 75 1704 123M918-50s617 10-457 176M918-50s793 349 566 495M918-50s-163 172 498 267M918-50s640 559-196 156M918-50S545 371 1360 69M918-50S6 132 1682 185M918-50S610-9 944 164M918-50S112 224 56 638M918-50s-422 454 542 425M918-50s718 199 837 609M918-50s-179 164 784 300M918-50S447-30 580 426M918-50s-548 256 933 88M918-50S200 159 1929 37M918-50S59 342 536 552M918-50s710 183 426 45M918-50s266 56 9 313M918-50s38 684 673 310M918-50S242-49 711 64M918-50s999 443-467 76M918-50s812 310-494 458M918-50s-236 659 538 175M918-50s773 191 780 1M918-50S31 275 381 580M918-50s283 631 531 341M918-50S84 26 896 257M918-50s-571 153 795 571M918-50s-841 237 837 4M918-50S507 537 239 490M918-50S197 233 126 196M918-50S1415 47 10 65M918-50S11-23 610 524M918-50s579 101 726 675M918-50s489 370-524 608M918-50S-4 570 1836 63M918-50s208 554 278 302M918-50s675 305-582 471M918-50s245 19 696 415M918-50s-21 206-19 71M918-50s114 543-688 416M918-50S310 552 1891-7M918-50s-965 698 301 85M918-50S120 143 351 395M918-50s-312 626 767 278M918-50s696 220 541 9M918-50s158 324-75 499M918-50S661 50 1492 14M918-50s843 543 16 693M918-50s-71 590 539 404M918-50s-20 12 367 264M918-50S443-2 1913 355M918-50s727 371-846 531M918-50s-109 385 549 426M918-50s-574 418 877 354M918-50S290 603 124 484M918-50s-65 542 347 76M918-50S43 386 1710 433M918-50s-626 188 224 618M918-50s-374 456 761 356M918-50s-640 150 198 206M918-50s382 588 27 226M918-50S649 269 270 23M918-50s1011 695-386 376M918-50s467 263 241 421M918-50s2 90-135 83M918-50S-43 506 631 480M918-50S216 220 591 172M918-50s439 386-253 467M918-50S21 634 1165 329M918-50S332 539 547 5M918-50s645 108-111 624M918-50s93 58-214 288M918-50s-789 689 336 369M918-50S670 591 1784 2M918-50s822 385 752 488M918-50s39 341 383 449M918-50s348 559 995 141M918-50S414-5 1134 402M918-50S-34 374 120 411M918-50s375 532 862 291M918-50s1038 7 617 274M918-50s381 583 64 393M918-50s1047 655 507 4M918-50s233 566 901 141M918-50S597 242 265 247M918-50s-163 196 370 462M918-50s1011 169 605 427M918-50s558 17-764 667M918-50s602 356 919 640M918-50s-189 653 589 95M918-50S73-5-19 255M918-50s348 434 887 525M918-50s973 92 116 290M918-50s446 330 508 582M918-50s161 273 841 691M918-50s-487 225 522 678M918-50s17 0 318 131M918-50s-214 513 693 630M918-50S719 500 1309 75M918-50s906 229 627 343M918-50S27 196 1488 7M918-50s-328 687 938 98M918-50s974 630 649 389M918-50s322 681-136 156M918-50S529 69 297 5M918-50s75 681-707 194M918-50S258 578 224 58M918-50S317 69 355 385M918-50s-382 60 3 420M918-50s-938 178 991 639M918-50S268 371 737 337M918-50s231 542-312 618M918-50s70 396 436 148M918-50S1026 582 17 91M918-50s-300 239 176 227M918-50S706 433 1952 471M918-50S313 484-5 6M918-50S226 241 303 173M918-50s953 682 260 533M918-50s126 89-579 455M918-50s-650 465 829 537M918-50s923 265-452 452M918-50S880 383-50 228M918-50s-943 647 444 62M918-50s-692 587 771 191M918-50s-150 32 719 251M918-50S495 504 433 79M918-50s477 469 720 59M918-50s764 159-931 493M918-50s-215 87 145 664M918-50s499 467 486 194M918-50s671 46-52 537M918-50s529 159-642 605M918-50S454 509 524 602M918-50S213 411 1700-5M918-50s648 305 63 16M918-50s805 158-851 441M918-50S340 336 801 267M918-50s520 386-328 235M918-50s548 589-712 348M918-50s230 14 192 137M918-50s94 198 681 600M918-50S618 498 132 459M918-50s586 216 867 673M918-50s841 485 471 19M918-50S204 506 434 205M918-50s-679 81 743 204M918-50s617 426 837 371M918-50S16 459 675 496M918-50s526 80-772 101M918-50s282 285-778 597M918-50s982 598 867 7M918-50s-605 310 827 472M918-50s-329 435 817 585M918-50S747 174 87 513M918-50s453 236 353 164M918-50s485 366 44 649M918-50s-449 513 884 574M918-50s395 339 275 637M918-50s1014 194-6 698M918-50s400 299-489 101M918-50s-165 678 574 501M918-50s-769 436 405 341M918-50s867 557 525 148M918-50s16 662-845 17M918-50s654 498-658 482M918-50s190 561-114 304M918-50s-235 434 21 12M918-50S1964 87-17 357M918-50s-88 320-227 413M918-50s339 695 691 429M918-50S140 578 632 99M918-50s757 288-388 49M918-50s245 215 957 105M918-50s883 565 567 576M918-50S187 113 163 119M918-50s-290 79 362 7M918-50s271 559-332 552M918-50s50 420-210 205M918-50S659 237-25 412M918-50s242 99 993 553M918-50s521 117-504 502M918-50S289 160 1532 77M918-50s278 178-9 160M918-50s-539 443 222 578M918-50s-694 517 46 397M918-50s-174 306 146 323M918-50s399 679 898 251M918-50s-676 455 209 163M918-50s-207 525 358 398M918-50s1000 652-683 300M918-50s-683 253 918 590M918-50S747 398 710 203M918-50S252 385 371 199M918-50S682-20 14-47M918-50s-227 650 363 60M918-50s-543 192 781 335M918-50s944 527 456 692M918-50S57 545 1096 508M918-50S374 421 186 299M918-50s170 664 119 280M918-50S521 135 327 610M918-50s861 345 1037 89M918-50s131 320 902 181M918-50s1006 68-347 326M918-50s245 375-91 664M918-50s938 648 583 693M918-50s255 165 622 260M918-50s192 601 0 88M918-50s-183 402 585 209M918-50S739 187 728 349M918-50s-46 341 297 451M918-50s693 218-275 170M918-50s619 299-545 603M918-50S496 604 1814-2M918-50s908 141 383 79M918-50s-21 574-340 552M918-50s291 150-755 288M918-50s-273 232 624 652M918-50S-38 125 611 75M918-50S390 589 689-11M918-50S563 500 1929 639M918-50s87 219-573 559M918-50S291 308 178 212M918-50S255 80 1622 415M918-50s259 574-176 179M918-50s400 31 808 678M918-50s767 197-114 483M918-50s776 638 420 558M918-50s993 74-16 60M918-50s929 653-428 202M918-50S-3 268 265 291" style="-webkit-tap-highlight-color:rgba(0,0,0,0)"/></svg>
