<svg height="600" width="1920" xmlns="http://www.w3.org/2000/svg" style="position:relative;top:-.3125px" overflow="hidden"><path fill="none" stroke="#fdcea9" d="M1892 194s-799 98-1470 359M1892 194s-492-337-980 218M1892 194S785 624 338-366M1892 194S813-261 821-395M1892 194S34 328 502 788M1892 194s-329-659-755-647M1892 194s13-605-121-655M1892 194S698-290 44 399M1892 194S243 857 1161-213M1892 194S735 395 974-4M1892 194S411-118 963-254M1892 194s-220 635-1125 12M1892 194S1724-490 807-429M1892 194s-1582-74 9-405M1892 194s-1333 897-334 287M1892 194S17-430 981-305M1892 194S844-178 631-254M1892 194S196-59 1002 769M1892 194S536 99 1726 312M1892 194S61 926 1735-324M756 271s149-587 699 812M756 271S974 63 1852 63M756 271s673-697 650-691M756 271s-643 680 411 341M756 271s197-433 1054-97M756 271s833-585-681 441M756 271s524-513 179 500M756 271s50-675 104 623M756 271s495 607-229 27M756 271s662 691 432-47M756 271s-735-72 345-730M756 271S1238 405 52-36M756 271s-35-609-228 141M756 271S866-181 31 508M756 271s306-732-586 561M756 271S736 585 1839 82M756 271S169 647 516 888M756 271s116 153 87-260M756 271s-582 147-67-633M756 271s880-550-356-136M917-70s-150-13 842 23M917-70S67 623 1332-39M917-70s-243 596 940 933M917-70s429 233-737 973M917-70S131 347 564 229M917-70s799 941-375 582M917-70s665-106 505 103M917-70s-284-349 290 558M917-70s-418 39 284 348M917-70s-15 33-329 342M917-70s376 948 385 551M917-70s293 458 75 217M917-70s246 275 501 1143M917-70s541 143-520 483M917-70s357 165 11-188M917-70s-399 721 361 577M917-70s177 464 575 460M917-70s653-71 822 922M917-70s-357-163 378-37M917-70S399 3 1578 790M1757 734s-52-499 36-1122M1757 734S135 0 1336 1098M1757 734s142 252-1363-448M1757 734S381 768 866 296M1757 734S538-245 846 891M1757 734S316 979 609 923M1757 734S1589 908 166 941M1757 734s-796-501-472-535M1757 734s54-253-1054-109M1757 734S108 567 499 238M1757 734S119 801 518 141M1757 734S455 175 1190 183M1757 734s-376-843-1554-80M1757 734S674-209 349 996M1757 734S292 840 1593-204M1757 734s-1519-324 129 275M1757 734S540-396 1722 594M1757 734S1439-102 281-7M1757 734s-445-984-172-1172M1757 734s122-208 96-96M1113-160s-298 35 276 439M1113-160S946 411 596-36M1113-160s739 630-924-73M1113-160s-296 1-605 292M1113-160s267 1197-876 1184M1113-160S401 59 694-432M1113-160s23 345-74 709M1113-160s-722 732 221 1205M1113-160S837 978 844 933M1113-160s251 1182-973-72M1113-160s469-249-520 1240M1113-160S479 210 368-49M1113-160s14 439-126 1163M1113-160S475 433 915 830M1113-160S56 247 1455 78M1113-160S396 894 871-402M1113-160s473 934 281 556M1113-160S448 136 211 816M1113-160s-589-172 421-221M1113-160s485 298-659 1150M1598 751S370 988 947-173M1598 751S1042-99 300 791M1598 751S580 284 302-12M1598 751S14 1084 381-413M1598 751s-410-439 228-1147M1598 751s289-294 163-320M1598 751s-348-722 312 30M1598 751S325 457 945 827M1598 751S483 1049 676-354M1598 751S78-360 918-247M1598 751s36 152-1271-835M1598 751s-201 216-749 13M1598 751S426 463 1555-392M1598 751S191-256 1273-450M1598 751S587-159 1308 79M1598 751s-176-492 4-217M1598 751S265-88 234-20M1598 751S1016-266 832-85M1598 751S949-78 1426-393M1598 751S649 407 722-39M1523 422S526 47 1821 781M1523 422s66-751-46 435M1523 422S59-262 361 895M1523 422S237 14 239-403M1523 422s-994-78-540-787M1523 422S922 1050 369 944M1523 422S345 781 1694-183M1523 422s349 87-1266 66M1523 422s-471 47-1135 362M1523 422S1414 792 845-34M1523 422s-122 1-1316 527M1523 422s-809-455 5 242M1523 422s62-375-367-489M1523 422s167-867-357-726M1523 422s306-812-785 542M1523 422s-601-291-647-39M1523 422s149-618 223-421M1523 422s174-530-310 70M1523 422S273-213 916 821M1523 422S653 570 525 919M1604 790s-440-1202 290-514M1604 790S514 125 945 498M1604 790s-974 199-241 192M1604 790s-677 77-744 90M1604 790s130 20-460 194M1604 790S119 478 1797 65M1604 790s-562-1159-409 196M1604 790s164-1173-476 126M1604 790S479 731 1897-73M1604 790s-455-96-868-1262M1604 790S395 875 21-345M1604 790s222-345 175-1125M1604 790S244 173 402-368M1604 790s285-747 28-1129M1604 790S577-209 1564-77M1604 790S623 908 1150-350M1604 790S1511-230 191-215M1604 790S635-33 1313 25M1604 790S381 481 1224 364M1604 790S510-75 1424 516M1411-468S640 5 320 869M1411-468s-880 41-69 689M1411-468S485-345 493 746M1411-468s193 1351-71 272M1411-468s-352-6-443 866M1411-468S401-457 989 655M1411-468S1173 937 227-146M1411-468S1186 656 550-139M1411-468s139 821-118 1032M1411-468s335-12-693 519M1411-468S479 968 1805 616M1411-468S6 404 1860 768M1411-468s-157 304-644 121M1411-468S482 581 1306 709M1411-468S418 736 1304 618M1411-468s263 231 490-2M1411-468S1121 1024 141 978M1411-468S1278-291 388-26M1411-468S1164-379 83 60M1411-468s261 203-440 1344M439 753s158-365 476-131M439 753s776-77-38 331M439 753s1286-506 83-903M439 753S224-245 1238-271M439 753S1741-254 569 450M439 753s650 3 1085-377M439 753s1383 131-331-385M439 753S360-361 794 448M439 753s413-518-366 298M439 753s-88 313 738-329M439 753s879-920 999 107M439 753s849-1131 266 287M439 753S718-446 1317-66M439 753S90 952 113 298M439 753S265 414 1837-140M439 753s1390 225 535 5M439 753s1448 124 1311-553M439 753s178-346 1281 285M439 753s365-1028 11 143M439 753s-71-511 864-76M1401-81s357-371-95-96M1401-81S875 679 1869 937M1401-81s-531-91 440 166M1401-81S365 1057 420 993M1401-81S166 678 1807 788M1401-81s-235 210-526 897M1401-81s249 633-91-357M1401-81s204 89 319 331M1401-81S54-469 1600 802M1401-81s-278-67-812 330M1401-81s160 452-657-267M1401-81s-660-110 428 205M1401-81S1087 47 491 881M1401-81s-3-409-4 1109M1401-81s-1210-360 394 5M1401-81s367 545 339 261M1401-81S466 118 727-46M1401-81S662-202 450 434M1401-81s-670-42 461-407M1401-81S243-445 1530 6M163 384s1319 182 26-234M163 384S82 763 18 203M163 384s1025-232 831 671M163 384S1613 56 1722 998M163 384s-87 103 24 177M163 384s1464 179 1339 441M163 384S879 44 1312 199M163 384s-20-821 1604-197M163 384s474-198 798 193M163 384s1538 454 500 121M163 384S585 276 39 161M163 384s819-34 327-867M163 384s1493 269 1059 55M163 384s-9-187 428-228M163 384s1129-758 285-614M163 384s1647-101-10 304M163 384s1498-705 389 104M163 384s1026 490 17-481M163 384s1424 248 1474 713M163 384S980-58 322-140M1455 353s-45 268-971-400M1455 353s-261 685 224 200M1455 353S298 786 576 1025M1455 353S489 963 178-367M1455 353S1816-13 433 696M1455 353s-779-53-263 236M1455 353S354 122 254 80M1455 353s-405-262 341 242M1455 353s-116-374 453 239M1455 353s294 364-818 396M1455 353s143-804-1333-746M1455 353S396 462 1294-203M1455 353S268 572 1788 74M1455 353S330-222 1288 173M1455 353s-341-123-347-759M1455 353s-406 144-759-852M1455 353S121-498 965-267M1455 353s-554 389-6-498M1455 353s-79-71-1389-215M1455 353s239-170-1337-635M1904 945s-449-913-683-83M1904 945S242 594 349 175M1904 945S1501 661 631-66M1904 945s-761-1296-176-784M1904 945s-1433 42-166 50M1904 945s-90-727-182 14M1904 945s-255-75-1003-202M1904 945S320-252 1538 985M1904 945S880 591 1169 164M1904 945s-567-1232-642-715M1904 945S1889-41 866 549M1904 945S252-432 1892 780M1904 945S1428-237 1599-303M1904 945s-267-1261-156-5M1904 945S647 1025 356 813M1904 945S62-193 416 459M1904 945S1561-212 181 1086M1904 945s-626-911-43-1153M1904 945S971-36 1186 138M1904 945S622-35 478-341M374 1025s49-1305 791-927M374 1025S229-84 1216 275M374 1025S225 61 43-232M374 1025S12 290 442 441M374 1025s319-811 140-33M374 1025S1390 609 1663-347M374 1025s247-235-59-1214M374 1025s713 9-346-1002M374 1025s720-666 613 0M374 1025s366-728 1338-629M374 1025s1187-591-167-716M374 1025s852-845 788-19M374 1025S514 6 1301 436M374 1025s232-175-90-1433M374 1025s-78-280-80-801M374 1025s122-641 193-330M374 1025S300-187 443-89M374 1025s441-673 230-584M374 1025s1080-616 445-48M374 1025s1000-736 1248-559" opacity=".5" style="-webkit-tap-highlight-color:rgba(0,0,0,0)"/></svg>
