<svg xmlns="http://www.w3.org/2000/svg" width="731.177" height="776.866" viewBox="0 50 731.177 578.86601"><path d="M432.623 250.586s-5.446-50.776-55.826-52.186c-50.38-1.41-76.254 38.082-76.254 94.5 0 56.416 28.595 101.552 77.614 101.552 49.02 0 54.466-56.417 54.466-56.417l93.953 5.64s5.532 50.955-33.784 89.83c-39.317 38.872-87.575 45.223-121.276 44.96-33.7-.27-80.427.527-125.613-45.753-45.186-46.28-52.854-91.24-52.854-135.403 0-44.167 8.568-102.674 62.295-147.04 36.514-30.15 73.53-41.257 110.55-41.257 154.55 0 164.93 142.544 164.93 142.544l-98.202-.97z" fill="#a8b9cc"/><g fill="#1b75b3"><path d="M268.85 10.005h51.647l.083 17.922h-2.47c-.804-6.41-3.126-10.75-6.953-13.013-2.146-1.248-5.357-1.93-9.63-2.042v46.806c0 3.272.55 5.442 1.656 6.512 1.1 1.07 3.4 1.607 6.89 1.607v2.256h-30.578v-2.256c3.35 0 5.578-.542 6.686-1.628 1.102-1.084 1.652-3.25 1.652-6.493V12.87c-4.185.113-7.4.795-9.63 2.043-4.105 2.318-6.423 6.657-6.953 13.013h-2.474l.073-17.92zM331.355 67.798c2.29-.11 3.91-.446 4.858-.996 1.597-.93 2.387-2.678 2.387-5.252V18.508c0-2.5-.714-4.194-2.13-5.087-.87-.515-2.573-.903-5.115-1.164V10h29.025v2.256c-2.51.144-4.26.49-5.233 1.033-1.62.916-2.426 2.656-2.426 5.213V36.94h20.44V18.504c0-2.557-.77-4.28-2.305-5.172-.948-.545-2.72-.905-5.32-1.074V10h29.192v2.256c-2.51.198-4.23.574-5.15 1.12-1.54.896-2.303 2.603-2.303 5.13V61.55c0 2.598.852 4.362 2.554 5.292.975.55 2.613.868 4.9.955v2.256h-29.194v-2.256c2.457-.087 4.205-.434 5.238-1.042 1.59-.925 2.39-2.66 2.39-5.202v-20.48h-20.44v20.48c0 2.632.86 4.41 2.592 5.334 1.006.52 2.697.826 5.066.91v2.255h-29.025v-2.254zM403.92 70.055V67.8c2.46-.088 4.205-.435 5.236-1.043 1.594-.925 2.39-2.66 2.39-5.202V18.513c0-2.587-.824-4.322-2.467-5.215-.95-.54-2.67-.89-5.16-1.033v-2.25h49.43V27.93h-2.094c-1.092-5.726-2.94-9.647-5.55-11.76-2.61-2.11-7.363-3.168-14.26-3.168-2.625 0-4.292.284-5.007.847-.712.565-1.075 1.685-1.075 3.362v20.566c4.888.058 8.202-.86 9.936-2.756 1.73-1.888 3.06-5.355 3.976-10.393h2.18v30.028h-2.18c-.61-5.062-1.863-8.628-3.745-10.698-1.888-2.066-5.273-3.103-10.156-3.103v21.52c0 1.88.466 3.162 1.403 3.842.934.68 2.857 1.02 5.762 1.02 5.47 0 9.94-1.1 13.398-3.298 3.462-2.194 6.538-6.318 9.22-12.363h2.384l-3.478 18.482H403.92v-.007z"/></g><g fill="#1b75b3"><path d="M10 573.975c2.816-.203 4.715-.814 5.672-1.843.966-1.025 1.45-3.116 1.45-6.273v-39.307c0-3.338-.492-5.446-1.47-6.322-.977-.88-2.864-1.478-5.652-1.792v-2.257h27.6c7.317 0 12.883 1.232 16.692 3.687 3.818 2.463 5.72 6.686 5.72 12.67 0 2.925-.745 5.665-2.237 8.223-1.496 2.558-3.958 4.62-7.396 6.182-2.598 1.1-5.19 1.768-7.788 2-2.6.235-6.45.347-11.56.347v16.57c0 3.27.53 5.412 1.59 6.424 1.062 1.013 3.044 1.58 5.95 1.69v2.257H10.003v-2.255H10zm31.247-29.59c2.708-1.794 4.065-5.658 4.065-11.58 0-4.05-.66-7.322-1.97-9.81-1.313-2.487-3.83-3.727-7.54-3.727-1.705 0-2.93.207-3.667.628-.742.422-1.11 1.235-1.11 2.447v23.867c5.11-.09 8.518-.698 10.222-1.826zM64.29 573.975c2.903-.145 4.886-.71 5.948-1.69 1.06-.984 1.59-3.124 1.59-6.426v-39.307c0-3.425-.625-5.652-1.882-6.694-.838-.687-2.725-1.162-5.653-1.422v-2.257h27.602c5.724 0 10.36.62 13.906 1.87 6.87 2.51 10.3 7.04 10.3 13.577 0 4.83-1.794 8.636-5.393 11.413-2.748 2.083-5.665 3.414-8.736 3.988l18.236 25.297c.47.694.974 1.145 1.504 1.367.53.215 1.188.356 1.97.414v2.124h-17.9l-20.013-27.764h-.036v17.393c0 3.123.503 5.23 1.51 6.312 1.004 1.086 3.015 1.686 6.03 1.802v2.256H64.286v-2.256h.004zm33.484-30.826c2.414-1.543 3.623-5.13 3.623-10.74 0-3.44-.462-6.162-1.38-8.158-1.592-3.385-4.496-5.08-8.713-5.08-2.294 0-3.793.3-4.507.894-.71.6-1.065 1.57-1.065 2.925V545.6c5.616-.086 9.63-.904 12.042-2.45zM181.572 523.512c5.892 5.934 8.84 13.57 8.84 22.91 0 9.346-2.944 16.982-8.84 22.908-5.753 5.785-12.94 8.678-21.574 8.678-9.155 0-16.63-3.166-22.407-9.5-5.39-5.958-8.085-13.157-8.085-21.604 0-9.314 2.82-16.97 8.46-22.955 5.698-6.075 13.038-9.112 22.033-9.112 8.657-.003 15.85 2.89 21.574 8.674zm-8.337 39.66c1.28-4.28 1.926-9.867 1.926-16.75 0-9.456-1.36-16.588-4.088-21.39-2.73-4.805-6.422-7.2-11.093-7.2-6.488 0-10.936 4-13.342 12.02-1.26 4.247-1.886 9.776-1.886 16.57 0 6.916.642 12.495 1.926 16.75 2.378 7.893 6.81 11.843 13.296 11.843 6.44 0 10.855-3.95 13.26-11.842zM206.752 524.38c5.7-6.215 12.97-9.326 21.82-9.326 3.547 0 7.082.69 10.6 2.062 3.515 1.37 5.708 2.053 6.574 2.053.926 0 1.664-.327 2.218-.993.555-.666 1.02-1.677 1.38-3.036h2.386v20.78h-2.18c-2.065-4.507-4.17-8.07-6.322-10.672-4.016-4.8-8.572-7.198-13.654-7.198-5.53 0-9.562 2.487-12.104 7.463-2.54 4.98-3.81 11.975-3.81 21 0 7.405 1.177 14.013 3.538 19.81 2.357 5.797 6.918 8.698 13.68 8.698 3.658 0 6.115-.793 7.372-2.384.726-.893 1.09-2.256 1.09-4.074v-9.376c0-2.694-.794-4.454-2.386-5.297-1.033-.522-3.128-.807-6.28-.87v-2.25h29.402v2.25c-2.96.116-4.923.74-5.884 1.852-.962 1.112-1.45 3.203-1.45 6.264v11.327c-1.898 1.214-4.97 2.426-9.213 3.64-4.246 1.215-8.993 1.83-14.243 1.83-9.518 0-17.13-3.11-22.826-9.33-5.305-5.813-7.954-13.107-7.954-21.867-.007-8.86 2.745-16.306 8.246-22.356zM265.35 573.975c2.904-.145 4.887-.71 5.948-1.69 1.064-.984 1.596-3.124 1.596-6.426v-39.307c0-3.425-.63-5.652-1.887-6.694-.833-.687-2.72-1.162-5.652-1.422v-2.257h27.602c5.725 0 10.36.62 13.906 1.87 6.87 2.51 10.304 7.04 10.304 13.577 0 4.83-1.8 8.636-5.397 11.413-2.75 2.083-5.66 3.414-8.733 3.988l18.23 25.297c.476.694.98 1.145 1.51 1.367.525.215 1.188.356 1.965.414v2.124h-17.9l-20.014-27.764h-.036v17.393c0 3.123.503 5.23 1.507 6.312 1.005 1.086 3.016 1.686 6.035 1.802v2.256h-28.99v-2.256h.005zm33.49-30.826c2.413-1.543 3.622-5.13 3.622-10.74 0-3.44-.458-6.162-1.38-8.158-1.59-3.385-4.496-5.08-8.712-5.08-2.294 0-3.79.3-4.508.894-.71.6-1.065 1.57-1.065 2.925V545.6c5.612-.086 9.63-.904 12.042-2.45zM329.357 573.975c2.066-.145 3.73-1.116 4.982-2.91.81-1.127 1.97-3.615 3.477-7.467l19.06-48.63h2.388l19.14 46.68c2.154 5.235 3.758 8.612 4.822 10.136 1.06 1.513 2.57 2.248 4.52 2.19v2.256h-27.77v-2.256c2.797-.112 4.632-.364 5.514-.736.88-.38 1.317-1.327 1.317-2.868 0-.693-.223-1.748-.667-3.165-.278-.84-.657-1.855-1.132-3.037l-2.183-5.38h-19.26c-1.257 3.53-2.066 5.83-2.43 6.896-.757 2.29-1.133 3.956-1.133 4.997 0 1.273.827 2.2 2.473 2.774.974.318 2.442.492 4.397.52v2.257h-17.505v-2.255h-.01zm32.205-18.703l-8.254-20.558h-.718l-7.747 20.558h16.72zM392.817 573.975c3.268-.03 5.39-.625 6.37-1.802.975-1.17 1.465-2.925 1.465-5.273v-42.213c0-2.414-.562-4-1.68-4.76-1.113-.765-3.096-1.257-5.943-1.492v-2.256h21.61l16.885 41.135h.71l16.782-41.136h21.626v2.255c-2.904.235-4.883.79-5.947 1.666-1.062.877-1.592 3.03-1.592 6.45v39.307c0 3.272.53 5.413 1.592 6.425 1.064 1.013 3.043 1.578 5.947 1.69v2.256H442.16v-2.256c2.54-.087 4.452-.53 5.74-1.318 1.277-.798 1.924-2.542 1.924-5.23v-43.43h-.626l-21.024 52.238h-2.3l-21.235-51.198h-.385v40.177c0 2.96.536 5.13 1.6 6.493 1.057 1.368 3.403 2.124 7.037 2.27v2.255h-20.065v-2.252h-.01zM475.675 573.975c3.267-.03 5.388-.625 6.365-1.802.978-1.17 1.47-2.925 1.47-5.273v-42.213c0-2.414-.563-4-1.677-4.76-1.12-.765-3.104-1.257-5.952-1.492v-2.256h21.616l16.88 41.135h.71l16.79-41.137H553.5v2.256c-2.904.235-4.887.79-5.947 1.666-1.062.876-1.594 3.028-1.594 6.45v39.306c0 3.272.53 5.413 1.593 6.425 1.06 1.014 3.043 1.58 5.948 1.69v2.257H525.02v-2.256c2.536-.086 4.45-.528 5.734-1.317 1.282-.798 1.928-2.542 1.928-5.23v-43.43h-.625l-21.023 52.238h-2.303l-21.24-51.197h-.378v40.177c0 2.96.53 5.128 1.596 6.492 1.06 1.368 3.403 2.124 7.04 2.27v2.255h-20.065v-2.252h-.008zM558.734 573.975c2.433-.058 4.172-.364 5.237-.91 1.732-.925 2.598-2.707 2.598-5.338v-43.04c0-2.612-.825-4.364-2.474-5.257-1.005-.545-2.792-.876-5.357-.99v-2.258h29.99v2.257c-2.678.114-4.52.433-5.528.953-1.676.89-2.514 2.653-2.514 5.298v43.04c0 2.49.67 4.146 2.01 4.993 1.337.834 3.348 1.256 6.032 1.256v2.255h-29.99v-2.26h-.004zM594.008 573.975c3.183-.087 5.237-.716 6.158-1.885.925-1.17 1.38-2.9 1.38-5.19v-42.082c-2.624-3.04-4.24-4.827-4.855-5.36-.613-.532-1.445-.875-2.512-1.02v-2.257h18.183l29.49 37.125h.42v-26.103c0-3.008-.528-5.153-1.58-6.442-1.062-1.29-3.168-2.058-6.34-2.322v-2.257h18.435v2.258c-2.682.463-4.48 1.078-5.382 1.855-.91.773-1.36 2.516-1.36 5.215v52.367h-2.39l-37.74-47.507h-.584v34.834c0 2.736.357 4.67 1.084 5.798 1.146 1.84 3.49 2.822 7.04 2.966v2.256h-19.44v-2.248h-.006zM667.855 524.38c5.695-6.215 12.97-9.326 21.82-9.326 3.548 0 7.08.69 10.604 2.062 3.518 1.37 5.704 2.053 6.574 2.053.916 0 1.66-.327 2.218-.993.56-.666 1.017-1.677 1.38-3.036h2.39v20.78h-2.174c-2.07-4.507-4.177-8.07-6.328-10.672-4.016-4.8-8.577-7.198-13.658-7.198-5.53 0-9.562 2.487-12.104 7.463-2.54 4.98-3.812 11.975-3.812 21 0 7.405 1.18 14.013 3.538 19.81 2.357 5.797 6.918 8.698 13.68 8.698 3.658 0 6.114-.793 7.372-2.384.726-.893 1.092-2.256 1.092-4.074v-9.376c0-2.694-.792-4.454-2.394-5.297-1.032-.522-3.127-.807-6.274-.87v-2.25h29.397v2.25c-2.96.116-4.915.74-5.88 1.852-.963 1.112-1.45 3.203-1.45 6.264v11.327c-1.897 1.214-4.97 2.426-9.213 3.64-4.246 1.215-8.992 1.83-14.238 1.83-9.522 0-17.134-3.11-22.834-9.33-5.306-5.813-7.95-13.107-7.95-21.867-.007-8.86 2.742-16.306 8.243-22.356zM111.202 662.833c2.342-.086 4.018-.405 5.023-.954 1.704-.93 2.554-2.69 2.554-5.303v-43.032c0-2.587-.812-4.323-2.43-5.215-.95-.545-2.67-.888-5.15-1.033v-2.256h29.99v2.257c-3.49.116-5.816.62-6.977 1.512-1.16.892-1.735 3.085-1.735 6.602v41.99c0 1.977.495 3.274 1.484 3.914.994.637 2.928.96 5.8.96 5.17 0 9.503-1.183 13.01-3.538 3.498-2.355 6.526-6.95 9.067-13.777h2.512l-3.48 20.133H111.2v-2.26h.002zM170.82 662.833c2.067-.145 3.73-1.115 4.983-2.91.81-1.127 1.97-3.615 3.475-7.466l19.06-48.632h2.386l19.144 46.682c2.15 5.235 3.755 8.61 4.815 10.136 1.06 1.512 2.57 2.248 4.524 2.19v2.256h-27.77v-2.258c2.792-.11 4.627-.363 5.508-.735.878-.38 1.32-1.327 1.32-2.868 0-.695-.226-1.75-.67-3.167-.278-.84-.657-1.855-1.132-3.037l-2.182-5.38h-19.258c-1.257 3.53-2.067 5.83-2.43 6.896-.753 2.29-1.128 3.955-1.128 4.996 0 1.272.822 2.198 2.47 2.772.977.32 2.44.492 4.4.52v2.258h-17.51v-2.257h-.003zm32.202-18.702l-8.25-20.556h-.722l-7.744 20.557h16.716zM235.003 662.833c3.184-.086 5.238-.715 6.156-1.884.924-1.17 1.38-2.902 1.38-5.19v-42.083c-2.626-3.042-4.245-4.826-4.855-5.36-.614-.533-1.452-.875-2.513-1.02v-2.256h18.18l29.487 37.125h.422v-26.103c0-3.008-.53-5.153-1.588-6.442-1.057-1.286-3.164-2.058-6.33-2.322v-2.256h18.43v2.256c-2.677.463-4.476 1.08-5.377 1.855-.914.772-1.36 2.517-1.36 5.214v52.367h-2.387l-37.742-47.507h-.59v34.833c0 2.736.362 4.67 1.093 5.797 1.146 1.84 3.488 2.823 7.04 2.967v2.256h-19.437v-2.248h-.01zM309.37 613.24c5.698-6.216 12.97-9.328 21.822-9.328 3.547 0 7.082.69 10.596 2.062 3.518 1.372 5.712 2.053 6.578 2.053.92 0 1.663-.326 2.217-.992.555-.665 1.022-1.678 1.38-3.038h2.387v20.78h-2.18c-2.065-4.507-4.17-8.07-6.322-10.672-4.017-4.802-8.573-7.198-13.655-7.198-5.53 0-9.562 2.487-12.104 7.463-2.542 4.98-3.814 11.974-3.814 21 0 7.404 1.18 14.012 3.543 19.81 2.356 5.797 6.916 8.698 13.677 8.698 3.66 0 6.116-.793 7.373-2.384.726-.893 1.09-2.256 1.09-4.075v-9.377c0-2.694-.795-4.455-2.386-5.297-1.034-.52-3.128-.806-6.28-.868v-2.252h29.4v2.252c-2.958.115-4.92.74-5.883 1.85-.96 1.113-1.447 3.203-1.447 6.265v11.326c-1.9 1.214-4.972 2.425-9.215 3.64-4.245 1.215-8.992 1.83-14.24 1.83-9.524 0-17.13-3.11-22.828-9.33-5.306-5.813-7.955-13.106-7.955-21.867-.008-8.86 2.745-16.305 8.246-22.354zM397.474 605.04v2.257c-3.323.116-5.54.648-6.662 1.595-1.113.955-1.676 3.124-1.676 6.52v29.778c0 4.52.52 8.012 1.553 10.475 1.873 4.574 5.46 6.863 10.766 6.863 6.59 0 11.04-2.53 13.358-7.595 1.28-2.78 1.927-6.673 1.927-11.686V616.06c0-3.18-.564-5.375-1.693-6.574-1.13-1.198-3.343-1.93-6.638-2.194v-2.256h18.845v2.256c-2.738.55-4.54 1.223-5.422 2.02-.882.794-1.316 2.63-1.316 5.49v28.42c0 7.55-1.768 13.38-5.28 17.487-3.52 4.106-9.05 6.156-16.59 6.156-9.86 0-16.6-3.05-20.232-9.16-1.927-3.245-2.89-7.426-2.89-12.55v-29.744c0-3.338-.427-5.438-1.275-6.306-.85-.855-2.773-1.463-5.757-1.81v-2.256h28.98zM433.006 662.833c2.065-.145 3.73-1.115 4.99-2.91.807-1.127 1.966-3.615 3.478-7.466l19.056-48.632h2.39l19.14 46.682c2.15 5.235 3.758 8.61 4.825 10.136 1.057 1.512 2.563 2.248 4.518 2.19v2.256h-27.77v-2.258c2.795-.11 4.63-.363 5.51-.735.88-.38 1.318-1.327 1.318-2.868 0-.695-.227-1.75-.665-3.167-.284-.84-.658-1.855-1.133-3.037l-2.183-5.38h-19.26c-1.262 3.53-2.07 5.83-2.435 6.896-.758 2.29-1.13 3.955-1.13 4.996 0 1.272.823 2.198 2.472 2.772.972.32 2.438.492 4.396.52v2.258h-17.51v-2.257h-.007zm32.204-18.702l-8.25-20.556h-.722l-7.747 20.557h16.72zM507.2 613.24c5.702-6.216 12.97-9.328 21.822-9.328 3.546 0 7.08.69 10.604 2.062 3.518 1.372 5.704 2.053 6.574 2.053.922 0 1.66-.326 2.217-.992.56-.665 1.018-1.678 1.382-3.038h2.388v20.78h-2.174c-2.066-4.507-4.177-8.07-6.328-10.672-4.016-4.802-8.576-7.198-13.658-7.198-5.53 0-9.562 2.487-12.104 7.463-2.54 4.98-3.813 11.974-3.813 21 0 7.404 1.18 14.012 3.544 19.81 2.354 5.797 6.913 8.698 13.675 8.698 3.657 0 6.113-.793 7.37-2.384.727-.893 1.094-2.256 1.094-4.075v-9.377c0-2.694-.794-4.455-2.39-5.297-1.033-.52-3.13-.806-6.28-.868v-2.252h29.398v2.252c-2.96.115-4.916.74-5.88 1.85-.962 1.113-1.444 3.203-1.444 6.265v11.326c-1.904 1.214-4.975 2.425-9.22 3.64-4.24 1.215-8.988 1.83-14.237 1.83-9.52 0-17.133-3.11-22.83-9.33-5.31-5.813-7.954-13.106-7.954-21.867-.005-8.86 2.743-16.305 8.245-22.354zM566.32 665.09v-2.257c2.458-.086 4.2-.434 5.234-1.04 1.597-.926 2.39-2.662 2.39-5.204v-43.042c0-2.587-.825-4.322-2.468-5.215-.95-.545-2.67-.888-5.155-1.033v-2.252h49.428v17.914h-2.09c-1.098-5.728-2.944-9.645-5.553-11.756-2.61-2.112-7.365-3.17-14.263-3.17-2.624 0-4.29.286-5.006.848-.71.566-1.07 1.686-1.07 3.363v20.566c4.884.057 8.198-.86 9.93-2.757 1.73-1.89 3.06-5.36 3.978-10.392h2.18v30.03h-2.18c-.61-5.06-1.863-8.625-3.745-10.695-1.89-2.067-5.275-3.1-10.158-3.1v21.524c0 1.872.466 3.153 1.403 3.835.934.68 2.856 1.02 5.762 1.02 5.472 0 9.94-1.1 13.4-3.297 3.462-2.194 6.537-6.318 9.218-12.368h2.385l-3.478 18.484h-50.14v-.01z"/></g></svg>