<svg height="32" viewBox="0 0 32 32" width="32" xmlns="http://www.w3.org/2000/svg"><path d="M649 138h26v18h-14m-8 0h-4v-14m12 14l-8 6v-6" fill="none" stroke="#FFF" stroke-linecap="round" stroke-linejoin="round" stroke-miterlimit="10" stroke-width="2"/><path d="M21.947 16.332C23.22 14.915 24 13.05 24 11c0-4.41-3.59-8-8-8s-8 3.59-8 8 3.59 8 8 8c1.555 0 3.003-.453 4.233-1.224 4.35 1.64 7.345 5.62 7.726 10.224H4.04c.26-3.1 1.713-5.99 4.078-8.05.417-.364.46-.995.097-1.412-.362-.416-.994-.46-1.41-.097C3.75 21.105 2 24.95 2 29c0 .553.448 1 1 1h26c.553 0 1-.447 1-1 0-5.486-3.18-10.385-8.053-12.668zM10 11c0-3.31 2.69-6 6-6s6 2.69 6 6-2.69 6-6 6-6-2.69-6-6z"/></svg>