<?xml version="1.0" encoding="UTF-8" standalone="no"?>
<svg
   xmlns:dc="http://purl.org/dc/elements/1.1/"
   xmlns:cc="http://creativecommons.org/ns#"
   xmlns:rdf="http://www.w3.org/1999/02/22-rdf-syntax-ns#"
   xmlns:svg="http://www.w3.org/2000/svg"
   xmlns="http://www.w3.org/2000/svg"
   xmlns:sodipodi="http://sodipodi.sourceforge.net/DTD/sodipodi-0.dtd"
   xmlns:inkscape="http://www.inkscape.org/namespaces/inkscape"
   width="34.355"
   height="34.357"
   id="svg2"
   version="1.1"
   inkscape:version="0.91 r"
   sodipodi:docname="Marigold.svg">
  <metadata
     id="metadata22">
    <rdf:RDF>
      <cc:Work
         rdf:about="">
        <dc:format>image/svg+xml</dc:format>
        <dc:type
           rdf:resource="http://purl.org/dc/dcmitype/StillImage" />
      </cc:Work>
    </rdf:RDF>
  </metadata>
  <defs
     id="defs20" />
  <sodipodi:namedview
     pagecolor="#ffffff"
     bordercolor="#666666"
     borderopacity="1"
     objecttolerance="10"
     gridtolerance="10"
     guidetolerance="10"
     inkscape:pageopacity="0"
     inkscape:pageshadow="2"
     inkscape:window-width="1309"
     inkscape:window-height="716"
     id="namedview18"
     showgrid="false"
     inkscape:zoom="22.627417"
     inkscape:cx="16.833999"
     inkscape:cy="4.7533463"
     inkscape:window-x="57"
     inkscape:window-y="24"
     inkscape:window-maximized="0"
     inkscape:current-layer="svg2" />
  <path
     style="fill:#8a0028"
     d="m 21.741198,0.11718538 c -0.68,-0.128 -1.781099,1.32525302 -4.554099,3.89725302 -5.782,-5.51 -4.348605,-5.5271421 -6.557605,1.6908579 l 5.472704,7.4878887 1.088476,-9.1857666 1.098524,9.1847666 5.533,-7.3749996 c -1.13,-3.844 -1.4,-5.57500002 -2.08,-5.70200002 z"
     id="path4" />
  <path
     style="fill:#8a0028"
     d="m 23.803,5.71 -3.625,8.468 8.5,-3.594 -0.032,-0.03 C 30.548,2.762 31.224037,4.0982057 23.848037,5.7862057 Z"
     id="path6" />
  <path
     style="fill:#8a0028;fill-opacity:1"
     d="m 28.678,10.584 -7.407,5.5 9.158,1.094 c 5.51,-5.782 5.467,-4.385 -1.75,-6.594 z"
     id="path3368" />
  <path
     style="fill:#8a0028;fill-opacity:1"
     d="m 10.584,5.678 -0.03,0.03 C 2.14,3.88 3.783,2.14 5.708,10.554 l 8.468,3.625 -3.594,-8.5 z"
     id="path8" />
  <path
     style="fill:#8a0028"
     d="M 5.71,10.553 C 2.09,11.64 0.32,11.91 0.04,12.493 -0.264,13.127 1.2221858,14.157641 3.9421858,16.955641 -1.4218142,22.969641 -1.669,21.523 5.678,23.771 l 7.406,-5.5 c -13.215,-1.954 -11.153,-0.854 0,-2.186 l -7.375,-5.53 z"
     id="path10" />
  <path
     style="fill:#8a0028"
     d="m 5.678,23.77 0.03,0.033 c -1.9,7.79 -2.53,6.532 4.845,4.843 l 3.625,-8.468 -8.5,3.593 z"
     id="path3360" />
  <path
     style="fill:#8a0028"
     d="m 10.572531,28.661625 c 2.26,7.67 1.044469,6.914375 6.605469,1.797375 5.79,5.483 4.39,5.417 6.593,-1.782 L 18.271,21.27 17.186812,30.401576 16.085,21.271 10.605781,28.623563 Z"
     id="path12" />
  <path
     style="fill:#8a0028"
     d="m 23.782868,28.652265 0.03943,0.0259 C 31.612301,30.580169 29.49,27.51 28.646,23.822 c -1.254,-0.358 -2.218,-0.84 -8.468,-3.644 2.146,4.157 3.573699,8.409927 3.573699,8.409927 z"
     id="path3364" />
  <path
     style="fill:#8a0028"
     d="m 30.428,17.193 -9.158,1.077 7.383812,5.493938 C 36.340812,21.503938 35.571,22.741 30.428,17.193 Z"
     id="path14" />
  <ellipse
     cx="17.228"
     cy="49.168"
     rx="3.015"
     ry="2.999"
     fill="#ff9400"
     transform="translate(0 -31.997)"
     id="ellipse16" />
</svg>
