<?xml version="1.0" encoding="UTF-8" standalone="no"?>
<!-- Created with Inkscape (http://www.inkscape.org/) -->

<svg
   xmlns:dc="http://purl.org/dc/elements/1.1/"
   xmlns:cc="http://creativecommons.org/ns#"
   xmlns:rdf="http://www.w3.org/1999/02/22-rdf-syntax-ns#"
   xmlns:svg="http://www.w3.org/2000/svg"
   xmlns="http://www.w3.org/2000/svg"
   xmlns:sodipodi="http://sodipodi.sourceforge.net/DTD/sodipodi-0.dtd"
   xmlns:inkscape="http://www.inkscape.org/namespaces/inkscape"
   width="200"
   height="200"
   id="svg3623"
   version="1.1"
   inkscape:version="0.91 r"
   sodipodi:docname="3rd_division_emblem_-_Marigold.svg">
  <defs
     id="defs3625" />
  <sodipodi:namedview
     id="base"
     pagecolor="#ffffff"
     bordercolor="#666666"
     borderopacity="1.0"
     inkscape:pageopacity="0.0"
     inkscape:pageshadow="2"
     inkscape:zoom="1.979899"
     inkscape:cx="51.567522"
     inkscape:cy="111.54432"
     inkscape:document-units="px"
     inkscape:current-layer="svg3623"
     showgrid="false"
     inkscape:window-width="1319"
     inkscape:window-height="744"
     inkscape:window-x="47"
     inkscape:window-y="24"
     inkscape:window-maximized="1"
     fit-margin-top="0"
     fit-margin-left="0"
     fit-margin-right="0"
     fit-margin-bottom="0"
     showborder="true"
     inkscape:showpageshadow="false" />
  <metadata
     id="metadata3628">
    <rdf:RDF>
      <cc:Work
         rdf:about="">
        <dc:format>image/svg+xml</dc:format>
        <dc:type
           rdf:resource="http://purl.org/dc/dcmitype/StillImage" />
        <dc:title></dc:title>
      </cc:Work>
    </rdf:RDF>
  </metadata>
  <path
     style="fill:#7b0050;fill-opacity:1;stroke:none"
     d="M 35.23236,56.946347 78.829446,75.553465 60.328837,31.922981 60.168219,32.083131 C 16.870057,22.693081 25.318463,13.753092 35.23236,56.946347 Z"
     id="path4152"
     inkscape:connector-curvature="0" />
  <path
     style="fill:#7b0050;fill-opacity:1;stroke:none"
     d="m 144.8432,34.050558 -18.66148,43.470078 43.75796,-18.446712 -0.16061,-0.16015 c 9.78749,-39.988211 13.03705,-33.527922 -24.93561,-24.86296 z"
     id="path4148"
     inkscape:connector-curvature="0" />
  <path
     style="fill:#7b0050;fill-opacity:1;stroke:none"
     d="m 170.80321,63.152604 -38.12734,28.23149 47.13634,5.614216 c 28.36407,-29.678841 28.1473,-22.504449 -9.009,-33.845706 z"
     id="path4146"
     inkscape:connector-curvature="0" />
  <path
     style="fill:#7b0050;fill-opacity:1;stroke:none"
     d="m 179.39142,103.19902 -47.30413,3.97053 36.94958,29.69573 c 39.95023,-10.2218 35.81868,-4.28826 10.35455,-33.66626 z"
     id="path4144"
     inkscape:connector-curvature="0" />
  <path
     style="fill:#7b0050;fill-opacity:1;stroke:none"
     d="m 168.12106,143.3421 -43.59709,-18.60712 18.50061,43.63048 0.16062,-0.16015 c 40.10515,9.75901 33.62578,12.99891 24.93586,-24.86321 z"
     id="path4142"
     inkscape:connector-curvature="0" />
  <path
     style="fill:#7b0050;fill-opacity:1;stroke:none"
     d="m 55.24584,167.87803 20.171633,-42.79421 -44.376966,16.91276 0.154903,0.1658 c -11.181179,39.62331 -14.202636,33.05384 24.050172,25.71555 z"
     id="path4138"
     inkscape:connector-curvature="0" />
  <path
     style="fill:#7b0050;fill-opacity:1;stroke:none"
     d="m 29.039357,135.09619 38.739814,-27.27506 -46.96558,-7.15083 0.05302,0.22021 c -29.3514979,28.9459 -28.7242919,21.74553 8.173046,34.20522 z"
     id="path4162"
     inkscape:connector-curvature="0" />
  <path
     style="fill:#7b0050;fill-opacity:1;stroke:none"
     d="M 20.005232,94.947626 67.354245,92.286218 31.325628,61.406512 31.253868,61.621071 C -9.0214504,70.659973 -4.6627867,64.885145 20.006007,94.947164 Z"
     id="path4164"
     inkscape:connector-curvature="0" />
  <path
     style="fill:#7b0050;fill-opacity:1;stroke:none"
     d="m 105.81583,23.317664 5.63722,46.949789 28.64521,-37.79057 -0.21941,-0.05852 C 128.30254,-7.0920135 134.35634,-3.1172251 105.81619,23.317818 Z"
     id="path4166"
     inkscape:connector-curvature="0" />
  <path
     style="fill:#7b0050;fill-opacity:1;stroke:none"
     d="m 66.098077,31.616028 28.425446,37.849291 5.856987,-47.00851 -0.21941,0.05852 C 67.372535,-7.2026809 79.172107,-10.733003 66.098077,31.615925 Z"
     id="path4168"
     inkscape:connector-curvature="0" />
  <path
     style="fill:#7b0050;fill-opacity:1;stroke:none"
     d="m 137.79233,170.73167 -28.42544,-37.84924 -5.85699,47.00846 0.2194,-0.0585 c 29.83831,28.44569 22.60233,28.02129 34.06303,-9.1006 z"
     id="path4170"
     inkscape:connector-curvature="0" />
  <path
     style="fill:#7b0050;fill-opacity:1;stroke:none"
     d="m 97.203503,178.59383 -3.990479,-47.11727 -29.950478,36.77074 0.217245,0.0662 c 10.186339,39.88904 4.275359,35.70606 33.723393,10.28021 z"
     id="path4172"
     inkscape:connector-curvature="0" />
  <g
     inkscape:groupmode="layer"
     id="layer1"
     inkscape:label="center"
     transform="translate(0,161.03646)" />
  <path
     sodipodi:type="star"
     style="fill:#c83737;fill-opacity:1;stroke:none"
     id="path4235"
     sodipodi:sides="8"
     sodipodi:cx="101.52033"
     sodipodi:cy="102.52028"
     sodipodi:r1="22.901743"
     sodipodi:r2="21.158451"
     sodipodi:arg1="-2.4186133"
     sodipodi:arg2="-2.0259142"
     inkscape:flatsided="true"
     inkscape:rounded="0"
     inkscape:randomized="0"
     d="m 84.347739,87.36799 15.744021,-7.704855 16.58086,5.68455 7.70486,15.744025 -5.68455,16.58086 -15.74403,7.70485 -16.580856,-5.68455 -7.704855,-15.74402 z" />
</svg>
